<svg xmlns="http://www.w3.org/2000/svg" xmlns:xlink="http://www.w3.org/1999/xlink" width="500" zoomAndPan="magnify" viewBox="0 0 375 374.999991" height="500" preserveAspectRatio="xMidYMid meet" version="1.0"><defs><clipPath id="422918452e"><path d="M 117.550781 117 L 263 117 L 263 262.625 L 117.550781 262.625 Z M 117.550781 117 " clip-rule="nonzero"/></clipPath><clipPath id="73ed540a1f"><path d="M 37.5 46 L 329 46 L 329 337.296875 L 37.5 337.296875 Z M 37.5 46 " clip-rule="nonzero"/></clipPath></defs><rect x="-37.5" width="450" fill="#ffffff" y="-37.499999" height="449.999989" fill-opacity="1"/><rect x="-37.5" width="450" fill="#40acdb" y="-37.499999" height="449.999989" fill-opacity="1"/><g clip-path="url(#422918452e)"><path fill="#ffffff" d="M 117.910156 142.742188 L 123.886719 136.460938 C 127.390625 132.964844 133.285156 134.175781 133.285156 134.175781 L 150.785156 136.570312 L 159.648438 127.90625 C 164.316406 123.328125 168.53125 130.332031 166.695312 132.75 L 162.148438 138.03125 L 180.992188 141.519531 L 187.390625 134.070312 C 194.226562 125.910156 199.3125 133.261719 196.226562 137.589844 L 192.097656 142.8125 L 220.410156 146.5 C 244.753906 123.101562 254.695312 113.398438 261.101562 119.164062 C 267.546875 124.964844 256.140625 136.535156 233.964844 159.351562 L 237.988281 188.484375 L 243.921875 183.546875 C 247.425781 180.632812 253.644531 185.304688 247.222656 191.386719 L 239.0625 199.070312 L 242.503906 218.140625 L 247.605469 214.226562 C 252.109375 210.644531 257.570312 215.382812 251.484375 221.875 L 243.386719 230.023438 C 243.054688 230.273438 246.03125 246.75 246.03125 246.75 C 247.863281 254.828125 243.300781 257.777344 243.300781 257.777344 L 237.742188 262.621094 L 216.609375 203.003906 C 214.855469 197.761719 210.417969 192.066406 203.003906 192.742188 C 199.085938 193.15625 189.1875 199.832031 187.851562 201.414062 L 164.9375 223.421875 C 164.351562 223.839844 168.460938 252.03125 168.460938 252.03125 C 168.460938 252.863281 161.195312 262.378906 161.195312 262.378906 L 146.671875 236.566406 L 139.503906 239.898438 L 143.695312 233.378906 L 117.550781 218.636719 L 127.355469 211.476562 C 132.023438 212.558594 156.5 215.308594 157 215.058594 C 157 215.058594 176.9375 195.3125 178.074219 194.121094 C 184.660156 187.210938 186.878906 184.625 187.875 181.214844 C 188.878906 177.796875 187.171875 172.789062 176.835938 166.453125 C 162.578125 157.707031 117.910156 142.742188 117.910156 142.742188 Z M 117.910156 142.742188 " fill-opacity="1" fill-rule="nonzero"/></g><g clip-path="url(#73ed540a1f)"><path fill="#ffffff" d="M 38.214844 96.925781 L 50.167969 84.335938 C 57.179688 77.324219 68.96875 79.753906 68.96875 79.753906 L 103.964844 84.554688 L 121.695312 67.1875 C 131.027344 58.003906 139.460938 72.050781 135.792969 76.898438 L 126.691406 87.488281 L 164.386719 94.476562 L 177.179688 79.542969 C 190.851562 63.179688 201.023438 77.925781 194.851562 86.601562 L 186.589844 97.074219 L 243.21875 104.464844 C 291.910156 57.554688 311.789062 38.09375 324.597656 49.65625 C 337.492188 61.289062 314.679688 84.484375 270.328125 130.230469 L 278.378906 188.644531 L 290.246094 178.746094 C 297.25 172.902344 309.683594 182.269531 296.84375 194.464844 L 280.523438 209.871094 L 287.410156 248.105469 L 297.605469 240.253906 C 306.613281 233.074219 317.542969 242.574219 305.371094 255.59375 L 289.171875 271.933594 C 288.503906 272.429688 294.457031 305.46875 294.457031 305.46875 C 298.125 321.660156 289.003906 327.574219 289.003906 327.574219 L 277.878906 337.285156 L 235.617188 217.761719 C 232.113281 207.246094 223.234375 195.824219 208.40625 197.179688 C 200.574219 198.011719 180.777344 211.394531 178.105469 214.570312 L 132.273438 258.695312 C 131.097656 259.53125 139.320312 316.058594 139.320312 316.058594 C 139.320312 317.726562 124.789062 336.804688 124.789062 336.804688 L 95.742188 285.050781 L 81.402344 291.726562 L 89.789062 278.65625 L 37.5 249.101562 L 57.109375 234.746094 C 66.441406 236.917969 115.398438 242.425781 116.402344 241.929688 C 116.402344 241.929688 156.273438 202.339844 158.550781 199.949219 C 171.722656 186.089844 176.152344 180.910156 178.148438 174.070312 C 180.15625 167.214844 176.742188 157.175781 156.070312 144.46875 C 127.554688 126.9375 38.214844 96.925781 38.214844 96.925781 Z M 38.214844 96.925781 " fill-opacity="1" fill-rule="nonzero"/></g></svg>