<svg xmlns="http://www.w3.org/2000/svg" xmlns:xlink="http://www.w3.org/1999/xlink" width="500" zoomAndPan="magnify" viewBox="0 0 375 374.999991" height="500" preserveAspectRatio="xMidYMid meet" version="1.0"><defs><clipPath id="e29e28e707"><path d="M 37.5 306 L 59 306 L 59 317 L 37.5 317 Z M 37.5 306 " clip-rule="nonzero"/></clipPath><clipPath id="1704b0304c"><path d="M 68 285 L 121 285 L 121 337.5 L 68 337.5 Z M 68 285 " clip-rule="nonzero"/></clipPath><clipPath id="ad7753a0a3"><path d="M 192 285 L 245 285 L 245 337.5 L 192 337.5 Z M 192 285 " clip-rule="nonzero"/></clipPath><clipPath id="88f473fbff"><path d="M 285 203 L 337.5 203 L 337.5 272 L 285 272 Z M 285 203 " clip-rule="nonzero"/></clipPath><clipPath id="054fc19302"><path d="M 192 37.5 L 297 37.5 L 297 174 L 192 174 Z M 192 37.5 " clip-rule="nonzero"/></clipPath></defs><rect x="-37.5" width="450" fill="#ffffff" y="-37.499999" height="449.999989" fill-opacity="1"/><rect x="-37.5" width="450" fill="#dc4372" y="-37.499999" height="449.999989" fill-opacity="1"/><path fill="#ffffff" d="M 291.816406 130.339844 C 301.414062 147.796875 306.464844 167.394531 306.464844 187.5 C 306.464844 189.359375 306.324219 191.238281 306.242188 193.117188 C 308 192.855469 309.800781 192.671875 311.636719 192.671875 C 313.316406 192.671875 314.972656 192.835938 316.589844 193.054688 C 316.667969 191.199219 316.808594 189.339844 316.808594 187.5 C 316.808594 163.921875 310.386719 141.007812 298.28125 120.925781 C 296.789062 123.59375 295.109375 126.160156 293.191406 128.582031 L 291.816406 130.339844 " fill-opacity="1" fill-rule="nonzero"/><path fill="#ffffff" d="M 137.695312 79.464844 C 152.847656 72.453125 169.03125 68.796875 185.925781 68.574219 C 187.195312 65 188.773438 61.542969 190.652344 58.289062 C 170.609375 57.824219 150.242188 62.109375 132.078125 70.714844 C 134.339844 73.34375 136.242188 76.273438 137.695312 79.464844 " fill-opacity="1" fill-rule="nonzero"/><path fill="#ffffff" d="M 84.597656 127.855469 L 77.910156 118.984375 C 65.96875 138.058594 59.261719 159.777344 58.371094 182.328125 L 68.714844 182.328125 C 69.542969 163.050781 74.9375 144.445312 84.597656 127.855469 " fill-opacity="1" fill-rule="nonzero"/><path fill="#ffffff" d="M 268.824219 274.28125 L 271.652344 285.574219 C 279.371094 278.945312 286.242188 271.492188 292.179688 263.289062 L 285.65625 254.578125 C 280.765625 261.730469 275.148438 268.339844 268.824219 274.28125 " fill-opacity="1" fill-rule="nonzero"/><path fill="#ffffff" d="M 182.328125 192.671875 L 140.949219 192.671875 L 140.949219 232.070312 L 115.085938 219.140625 L 89.222656 232.070312 L 89.222656 192.671875 L 47.84375 192.671875 L 47.84375 296.121094 L 61.726562 296.121094 C 67.566406 283.917969 79.992188 275.429688 94.398438 275.429688 C 108.800781 275.429688 121.226562 283.917969 127.066406 296.121094 L 182.328125 296.121094 L 182.328125 192.671875 " fill-opacity="1" fill-rule="nonzero"/><path fill="#ffffff" d="M 130.179688 306.464844 C 130.441406 308.164062 130.601562 309.878906 130.601562 311.636719 C 130.601562 313.394531 130.441406 315.113281 130.179688 316.808594 L 182.75 316.808594 C 182.488281 315.113281 182.328125 313.394531 182.328125 311.636719 C 182.328125 309.878906 182.488281 308.164062 182.75 306.464844 L 130.179688 306.464844 " fill-opacity="1" fill-rule="nonzero"/><path fill="#ffffff" d="M 255.871094 265.085938 L 223.707031 265.085938 C 218.007812 265.085938 213.363281 260.4375 213.363281 254.742188 L 213.363281 244.398438 C 213.363281 238.699219 218.007812 234.050781 223.707031 234.050781 L 248.113281 234.050781 L 246.519531 227.625 C 245.933594 225.324219 243.871094 223.707031 241.488281 223.707031 L 192.671875 223.707031 L 192.671875 286.339844 C 199.257812 279.613281 208.410156 275.429688 218.535156 275.429688 C 232.941406 275.429688 245.367188 283.917969 251.207031 296.121094 L 263.632812 296.121094 L 255.871094 265.085938 " fill-opacity="1" fill-rule="nonzero"/><g clip-path="url(#e29e28e707)"><path fill="#ffffff" d="M 37.5 306.464844 L 37.5 316.808594 L 58.613281 316.808594 C 58.351562 315.113281 58.191406 313.394531 58.191406 311.636719 C 58.191406 309.878906 58.351562 308.164062 58.613281 306.464844 L 37.5 306.464844 " fill-opacity="1" fill-rule="nonzero"/></g><g clip-path="url(#1704b0304c)"><path fill="#ffffff" d="M 94.398438 321.984375 C 88.679688 321.984375 84.050781 317.355469 84.050781 311.636719 C 84.050781 305.921875 88.679688 301.292969 94.398438 301.292969 C 100.113281 301.292969 104.742188 305.921875 104.742188 311.636719 C 104.742188 317.355469 100.113281 321.984375 94.398438 321.984375 Z M 94.398438 285.777344 C 80.132812 285.777344 68.535156 297.375 68.535156 311.636719 C 68.535156 325.902344 80.132812 337.5 94.398438 337.5 C 108.660156 337.5 120.257812 325.902344 120.257812 311.636719 C 120.257812 297.375 108.660156 285.777344 94.398438 285.777344 " fill-opacity="1" fill-rule="nonzero"/></g><path fill="#ffffff" d="M 99.570312 215.34375 L 115.085938 207.582031 L 130.601562 215.34375 L 130.601562 192.671875 L 99.570312 192.671875 L 99.570312 215.34375 " fill-opacity="1" fill-rule="nonzero"/><g clip-path="url(#ad7753a0a3)"><path fill="#ffffff" d="M 218.535156 321.984375 C 212.816406 321.984375 208.191406 317.355469 208.191406 311.636719 C 208.191406 305.921875 212.816406 301.292969 218.535156 301.292969 C 224.253906 301.292969 228.878906 305.921875 228.878906 311.636719 C 228.878906 317.355469 224.253906 321.984375 218.535156 321.984375 Z M 218.535156 285.777344 C 204.269531 285.777344 192.671875 297.375 192.671875 311.636719 C 192.671875 325.902344 204.269531 337.5 218.535156 337.5 C 232.800781 337.5 244.398438 325.902344 244.398438 311.636719 C 244.398438 297.375 232.800781 285.777344 218.535156 285.777344 " fill-opacity="1" fill-rule="nonzero"/></g><path fill="#ffffff" d="M 223.707031 254.742188 L 253.285156 254.742188 L 250.699219 244.398438 L 223.707031 244.398438 L 223.707031 254.742188 " fill-opacity="1" fill-rule="nonzero"/><path fill="#ffffff" d="M 254.742188 311.636719 C 254.742188 313.394531 254.578125 315.113281 254.316406 316.808594 L 265.085938 316.808594 L 265.085938 306.464844 L 254.316406 306.464844 C 254.578125 308.164062 254.742188 309.878906 254.742188 311.636719 " fill-opacity="1" fill-rule="nonzero"/><path fill="#ffffff" d="M 104.742188 84.050781 C 110.460938 84.050781 115.085938 88.679688 115.085938 94.398438 C 115.085938 100.113281 110.460938 104.742188 104.742188 104.742188 C 99.023438 104.742188 94.398438 100.113281 94.398438 94.398438 C 94.398438 88.679688 99.023438 84.050781 104.742188 84.050781 Z M 104.742188 137.492188 L 125.429688 109.914062 C 128.765625 105.46875 130.601562 99.953125 130.601562 94.398438 C 130.601562 80.132812 119.007812 68.535156 104.742188 68.535156 C 90.476562 68.535156 78.878906 80.132812 78.878906 94.398438 C 78.878906 99.953125 80.71875 105.46875 84.050781 109.914062 L 104.742188 137.492188 " fill-opacity="1" fill-rule="nonzero"/><g clip-path="url(#88f473fbff)"><path fill="#ffffff" d="M 311.636719 239.222656 C 305.921875 239.222656 301.292969 234.597656 301.292969 228.878906 C 301.292969 223.160156 305.921875 218.535156 311.636719 218.535156 C 317.355469 218.535156 321.984375 223.160156 321.984375 228.878906 C 321.984375 234.597656 317.355469 239.222656 311.636719 239.222656 Z M 311.636719 203.015625 C 297.375 203.015625 285.777344 214.613281 285.777344 228.878906 C 285.777344 234.4375 287.613281 239.953125 290.949219 244.398438 L 311.636719 271.976562 L 332.328125 244.398438 C 335.660156 239.953125 337.5 234.4375 337.5 228.878906 C 337.5 214.613281 325.902344 203.015625 311.636719 203.015625 " fill-opacity="1" fill-rule="nonzero"/></g><g clip-path="url(#054fc19302)"><path fill="#ffffff" d="M 244.398438 53.015625 C 264.398438 53.015625 280.601562 69.222656 280.601562 89.222656 C 280.601562 109.226562 264.398438 125.429688 244.398438 125.429688 C 224.394531 125.429688 208.191406 109.226562 208.191406 89.222656 C 208.191406 69.222656 224.394531 53.015625 244.398438 53.015625 Z M 244.398438 173.960938 L 285.070312 122.179688 C 292.199219 113.125 296.121094 101.769531 296.121094 90.234375 L 296.121094 89.222656 C 296.121094 60.695312 272.925781 37.5 244.398438 37.5 C 215.867188 37.5 192.671875 60.695312 192.671875 89.222656 L 192.671875 90.234375 C 192.671875 101.769531 196.59375 113.125 203.722656 122.179688 L 244.398438 173.960938 " fill-opacity="1" fill-rule="nonzero"/></g><path fill="#ffffff" d="M 151.292969 161.636719 L 151.292969 171.984375 L 161.636719 171.984375 L 161.636719 161.636719 L 151.292969 161.636719 " fill-opacity="1" fill-rule="nonzero"/><path fill="#ffffff" d="M 182.328125 161.636719 L 171.984375 161.636719 L 171.984375 171.984375 L 182.328125 171.984375 L 182.328125 161.636719 " fill-opacity="1" fill-rule="nonzero"/><path fill="#ffffff" d="M 203.015625 161.636719 L 192.671875 161.636719 L 192.671875 171.984375 L 203.015625 171.984375 L 203.015625 161.636719 " fill-opacity="1" fill-rule="nonzero"/></svg>