<svg xmlns="http://www.w3.org/2000/svg" xmlns:xlink="http://www.w3.org/1999/xlink" width="500" zoomAndPan="magnify" viewBox="0 0 375 374.999991" height="500" preserveAspectRatio="xMidYMid meet" version="1.0"><defs><clipPath id="25d2b27b19"><path d="M 45.207031 45.207031 L 329.457031 45.207031 L 329.457031 329.457031 L 45.207031 329.457031 Z M 45.207031 45.207031 " clip-rule="nonzero"/></clipPath></defs><rect x="-37.5" width="450" fill="#ffffff" y="-37.499999" height="449.999989" fill-opacity="1"/><rect x="-37.5" width="450" fill="#8c52ff" y="-37.499999" height="449.999989" fill-opacity="1"/><g clip-path="url(#25d2b27b19)"><path fill="#ffffff" d="M 328.238281 232.472656 C 327.15625 230.519531 325.449219 228.984375 323.246094 227.980469 C 320.453125 226.707031 316.808594 226.308594 312.714844 227.085938 C 308.976562 225.316406 305.613281 223.949219 302.621094 222.984375 C 304.902344 216.664062 306.730469 210.113281 308.042969 203.375 C 309.652344 195.117188 310.496094 186.609375 310.496094 177.929688 C 310.496094 171.640625 310.042969 165.394531 309.175781 159.238281 C 308.386719 153.652344 307.242188 148.164062 305.761719 142.800781 C 316.824219 122.992188 329.5 98.796875 329.5 86.941406 C 329.5 75.472656 324.925781 65.058594 317.527344 57.519531 C 310.113281 49.957031 299.863281 45.277344 288.554688 45.277344 C 277.242188 45.277344 267 49.957031 259.585938 57.519531 C 256.582031 60.582031 254.050781 64.128906 252.097656 68.015625 C 242.089844 61.242188 231.121094 55.796875 219.453125 51.945312 C 206.367188 47.617188 192.371094 45.277344 177.859375 45.277344 C 141.226562 45.277344 108.066406 60.125 84.0625 84.136719 C 77.980469 90.21875 72.492188 96.886719 67.679688 104.050781 C 67.644531 104.105469 67.609375 104.15625 67.574219 104.214844 C 53.453125 125.292969 45.207031 150.644531 45.207031 177.921875 C 45.207031 177.921875 45.207031 177.921875 45.207031 177.929688 C 45.207031 177.929688 45.207031 177.929688 45.207031 177.9375 C 45.207031 190.246094 46.90625 202.210938 50.078125 213.589844 C 52.613281 222.691406 56.109375 231.40625 60.4375 239.621094 L 49.792969 239.621094 C 47.261719 239.621094 45.207031 241.675781 45.207031 244.207031 L 45.207031 324.996094 C 45.207031 327.527344 47.261719 329.578125 49.792969 329.578125 L 131.300781 329.578125 C 133.828125 329.578125 135.882812 327.527344 135.882812 324.996094 L 135.882812 303.773438 C 141.519531 305.648438 147.328125 307.171875 153.28125 308.285156 C 161.285156 309.785156 169.5 310.574219 177.851562 310.574219 C 185.179688 310.574219 192.421875 309.964844 199.523438 308.796875 C 203.503906 308.144531 207.410156 307.304688 211.257812 306.3125 L 203.097656 322.984375 C 201.988281 325.25 202.925781 327.980469 205.195312 329.089844 C 206.332031 329.644531 207.589844 329.6875 208.707031 329.304688 L 231.796875 321.265625 C 232.621094 320.980469 233.3125 320.476562 233.824219 319.851562 L 274.191406 276.738281 C 274.605469 276.296875 274.902344 275.804688 275.109375 275.28125 C 275.691406 275.046875 276.273438 274.8125 276.851562 274.582031 C 299.167969 265.59375 314.304688 257.539062 322.257812 250.425781 C 326.539062 246.601562 328.742188 242.75 329.324219 239.339844 C 329.757812 236.808594 329.351562 234.484375 328.25 232.5 Z M 172.863281 264.519531 L 159.316406 268.734375 C 159.195312 268.277344 159.074219 267.816406 158.953125 267.355469 C 157.867188 263.121094 156.851562 258.578125 155.925781 253.765625 L 174.234375 253.765625 C 174.730469 254.929688 175.707031 255.890625 177.007812 256.316406 L 205.648438 265.804688 L 190.296875 273.90625 L 176.929688 265.1875 C 175.785156 264.371094 174.296875 264.070312 172.863281 264.519531 Z M 78.265625 248.785156 L 102.933594 248.785156 L 102.933594 272.265625 L 93.523438 264.632812 C 91.882812 263.261719 89.4375 263.199219 87.71875 264.597656 L 78.265625 272.265625 Z M 107.554688 239.621094 C 107.539062 239.621094 107.53125 239.621094 107.519531 239.621094 C 107.503906 239.621094 107.496094 239.621094 107.484375 239.621094 L 106.523438 239.621094 C 103.082031 230.875 100.398438 221.578125 98.542969 211.769531 C 96.785156 202.5 95.769531 192.734375 95.535156 182.515625 L 140.296875 182.515625 C 140.503906 205.128906 142.210938 226.308594 145.050781 244.605469 L 135.875 244.605469 L 135.875 244.207031 C 135.875 241.675781 133.824219 239.621094 131.292969 239.621094 Z M 54.46875 173.347656 C 55.300781 150.523438 62.324219 129.289062 73.90625 111.257812 L 98.683594 111.257812 C 91.328125 129.609375 86.914062 150.765625 86.378906 173.347656 Z M 108.5625 111.257812 L 145.066406 111.257812 C 142.222656 129.550781 140.511719 150.730469 140.3125 173.347656 L 95.550781 173.347656 C 96.105469 150.515625 100.800781 129.289062 108.5625 111.257812 Z M 299.125 154.605469 C 299.496094 156.550781 299.84375 158.511719 300.121094 160.488281 C 300.710938 164.675781 301.09375 168.96875 301.25 173.347656 L 269.332031 173.347656 C 268.933594 156.402344 266.347656 140.253906 261.976562 125.492188 C 266.871094 134.953125 272.253906 144.460938 276.808594 152.515625 C 279.914062 158.015625 282.628906 162.804688 284.519531 166.410156 C 284.9375 167.207031 285.59375 167.894531 286.453125 168.34375 C 288.683594 169.507812 291.441406 168.640625 292.609375 166.410156 C 294.25 163.269531 296.515625 159.230469 299.125 154.605469 Z M 249.898438 237.660156 L 211.789062 236.792969 C 212.878906 228.683594 213.738281 220.199219 214.339844 211.308594 C 214.96875 202.082031 215.328125 192.488281 215.414062 182.507812 L 260.167969 182.507812 C 259.929688 192.046875 258.941406 201.363281 257.3125 210.261719 C 255.542969 219.921875 253.019531 229.140625 249.898438 237.660156 Z M 183 244.597656 L 154.304688 244.597656 C 151.421875 226.496094 149.679688 205.285156 149.464844 182.507812 L 206.230469 182.507812 C 206.148438 192.402344 205.804688 201.789062 205.195312 210.695312 C 204.582031 219.722656 203.703125 228.34375 202.570312 236.582031 L 200.644531 236.539062 C 199.855469 236.480469 199.054688 236.621094 198.292969 237 Z M 177.84375 54.449219 C 177.84375 54.449219 177.851562 54.449219 177.851562 54.449219 C 177.851562 54.449219 177.859375 54.449219 177.859375 54.449219 C 184.613281 54.453125 191.34375 67.46875 196.757812 88.5 C 197.84375 92.734375 198.863281 97.277344 199.785156 102.089844 L 155.910156 102.089844 C 156.835938 97.277344 157.851562 92.734375 158.941406 88.5 C 164.371094 67.46875 171.09375 54.453125 177.84375 54.449219 Z M 201.398438 111.257812 C 204.285156 129.359375 206.03125 150.566406 206.238281 173.347656 L 149.472656 173.347656 C 149.679688 150.566406 151.421875 129.359375 154.3125 111.257812 Z M 215.40625 173.347656 C 215.203125 150.730469 213.496094 129.550781 210.652344 111.257812 L 247.15625 111.257812 C 254.917969 129.296875 259.609375 150.515625 260.167969 173.347656 Z M 209.082031 102.089844 C 208.03125 96.460938 206.871094 91.15625 205.605469 86.246094 C 202.429688 73.914062 198.476562 63.878906 193.9375 56.828125 C 209.949219 61.613281 224.328125 73.394531 235.5625 89.933594 C 238.152344 93.742188 240.558594 97.808594 242.800781 102.089844 Z M 161.777344 56.820312 C 157.234375 63.871094 153.28125 73.90625 150.105469 86.238281 C 148.839844 91.148438 147.675781 96.453125 146.628906 102.082031 L 112.914062 102.082031 C 115.144531 97.800781 117.5625 93.738281 120.148438 89.925781 C 131.378906 73.386719 145.761719 61.613281 161.777344 56.820312 Z M 150.105469 269.609375 C 150.277344 270.269531 150.445312 270.914062 150.625 271.5625 C 150.035156 271.898438 149.5 272.351562 149.097656 272.949219 C 147.675781 275.03125 148.207031 277.882812 150.296875 279.300781 L 153.714844 281.648438 C 156.109375 288.542969 158.796875 294.378906 161.734375 298.953125 C 159.734375 298.34375 157.761719 297.632812 155.8125 296.808594 C 148.769531 293.808594 142.074219 289.402344 135.890625 283.84375 L 135.890625 253.765625 L 146.636719 253.765625 C 147.683594 259.394531 148.839844 264.695312 150.105469 269.609375 Z M 177.859375 301.40625 C 174.226562 301.40625 170.601562 297.648438 167.191406 290.910156 L 182.351562 301.320312 C 180.867188 301.378906 179.367188 301.40625 177.859375 301.40625 Z M 216.863281 259.878906 L 190.425781 251.113281 L 201.363281 245.691406 L 241.988281 246.617188 Z M 259.742188 237.242188 C 262.449219 229.273438 264.667969 220.78125 266.296875 211.910156 C 268.03125 202.402344 269.082031 192.523438 269.332031 182.507812 L 301.242188 182.507812 C 301.007812 189.046875 300.269531 195.441406 299.0625 201.648438 C 297.753906 208.371094 295.882812 214.910156 293.515625 221.222656 C 291.8125 221.199219 290.289062 221.414062 288.96875 221.867188 C 288.75 221.945312 288.527344 222.039062 288.320312 222.144531 Z M 266.105469 63.929688 C 271.847656 58.074219 279.785156 54.449219 288.554688 54.449219 C 297.328125 54.449219 305.265625 58.074219 311.007812 63.929688 C 316.765625 69.800781 320.332031 77.9375 320.332031 86.941406 C 320.332031 97.019531 307.683594 120.714844 296.957031 139.878906 C 296.90625 139.964844 296.859375 140.046875 296.816406 140.132812 C 295.257812 142.90625 293.75 145.585938 292.324219 148.109375 L 288.5625 154.789062 L 284.746094 148 C 277.574219 135.316406 268.25 118.820312 262.386719 105.484375 C 262.265625 105.039062 262.082031 104.609375 261.839844 104.226562 C 258.777344 97.085938 256.785156 90.949219 256.785156 86.941406 C 256.78125 77.9375 260.347656 69.800781 266.105469 63.929688 Z M 248.542969 93.550781 C 246.820312 90.523438 245.015625 87.601562 243.121094 84.816406 C 237.503906 76.542969 231.144531 69.351562 224.191406 63.4375 C 232.957031 66.984375 241.214844 71.503906 248.832031 76.863281 C 248.042969 80.089844 247.617188 83.46875 247.617188 86.941406 C 247.609375 88.855469 247.945312 91.078125 248.542969 93.550781 Z M 90.539062 90.609375 C 102.136719 79.011719 116.039062 69.714844 131.5 63.453125 C 124.554688 69.359375 118.207031 76.550781 112.59375 84.808594 C 108.976562 90.140625 105.664062 95.917969 102.707031 102.089844 L 80.410156 102.089844 C 83.550781 98.058594 86.933594 94.21875 90.539062 90.609375 Z M 58.882812 211.148438 C 56.339844 202.015625 54.824219 192.421875 54.46875 182.507812 L 86.375 182.507812 C 86.617188 193.246094 87.695312 203.574219 89.558594 213.445312 C 91.292969 222.605469 93.707031 231.328125 96.742188 239.613281 L 73.714844 239.613281 C 73.703125 239.613281 73.695312 239.613281 73.679688 239.613281 C 73.664062 239.613281 73.660156 239.613281 73.644531 239.613281 L 70.867188 239.613281 C 65.75 230.773438 61.691406 221.226562 58.882812 211.148438 Z M 126.714844 320.40625 L 54.375 320.40625 L 54.375 248.785156 L 69.097656 248.785156 L 69.097656 281.867188 C 69.097656 284.398438 71.148438 286.453125 73.679688 286.453125 C 74.910156 286.453125 76.019531 285.96875 76.84375 285.1875 L 90.601562 274.027344 L 104.640625 285.414062 C 106.59375 287.007812 109.472656 286.707031 111.066406 284.753906 C 111.753906 283.90625 112.089844 282.882812 112.101562 281.867188 L 112.101562 248.785156 L 126.714844 248.785156 Z M 227.738281 313 L 216.175781 317.019531 L 228.433594 291.988281 C 238.535156 288.671875 247.875 285.457031 256.429688 282.351562 Z M 320.296875 237.789062 C 320.035156 239.316406 318.753906 241.300781 316.167969 243.617188 C 309.03125 250 294.789062 257.488281 273.4375 266.089844 C 252.195312 274.648438 224.035156 284.222656 188.984375 294.78125 L 163.234375 277.09375 L 173.53125 273.886719 L 187.5625 283.042969 C 188.996094 283.972656 190.765625 283.992188 192.179688 283.253906 L 292.175781 230.46875 C 292.957031 230.269531 294.085938 230.3125 295.542969 230.566406 C 295.671875 230.597656 295.796875 230.617188 295.925781 230.636719 C 296.460938 230.746094 297.042969 230.878906 297.660156 231.042969 L 297.839844 231.085938 C 301.09375 231.960938 305.195312 233.601562 310.15625 236.019531 C 311.257812 236.550781 312.464844 236.609375 313.546875 236.269531 C 316.113281 235.621094 318.152344 235.691406 319.460938 236.289062 C 319.84375 236.464844 320.113281 236.671875 320.242188 236.894531 C 320.339844 237.085938 320.367188 237.390625 320.296875 237.789062 Z M 288.554688 104.3125 C 293.746094 104.3125 298.441406 102.167969 301.839844 98.699219 C 305.222656 95.25 307.320312 90.496094 307.320312 85.265625 C 307.320312 80.035156 305.222656 75.277344 301.839844 71.832031 C 298.4375 68.363281 293.738281 66.21875 288.554688 66.21875 C 283.367188 66.21875 278.671875 68.363281 275.273438 71.832031 C 271.890625 75.277344 269.792969 80.035156 269.792969 85.265625 C 269.792969 90.496094 271.890625 95.25 275.273438 98.699219 C 278.671875 102.167969 283.367188 104.3125 288.554688 104.3125 Z M 281.789062 78.242188 C 283.515625 76.480469 285.914062 75.386719 288.554688 75.386719 C 291.199219 75.386719 293.59375 76.480469 295.324219 78.242188 C 297.070312 80.027344 298.152344 82.507812 298.152344 85.265625 C 298.152344 88.023438 297.070312 90.503906 295.324219 92.285156 C 293.59375 94.050781 291.199219 95.144531 288.554688 95.144531 C 285.914062 95.144531 283.515625 94.050781 281.789062 92.285156 C 280.042969 90.503906 278.960938 88.023438 278.960938 85.265625 C 278.960938 82.507812 280.042969 80.027344 281.789062 78.242188 Z M 95.1875 300.917969 C 95.1875 303.445312 93.132812 305.5 90.601562 305.5 L 62.359375 305.5 C 59.828125 305.5 57.773438 303.445312 57.773438 300.917969 C 57.773438 298.386719 59.828125 296.332031 62.359375 296.332031 L 90.601562 296.332031 C 93.132812 296.332031 95.1875 298.386719 95.1875 300.917969 Z M 95.1875 311.746094 C 95.1875 314.277344 93.132812 316.332031 90.601562 316.332031 L 62.359375 316.332031 C 59.828125 316.332031 57.773438 314.277344 57.773438 311.746094 C 57.773438 309.21875 59.828125 307.164062 62.359375 307.164062 L 90.601562 307.164062 C 93.132812 307.164062 95.1875 309.210938 95.1875 311.746094 Z M 95.1875 311.746094 " fill-opacity="1" fill-rule="nonzero"/></g></svg>