<svg xmlns="http://www.w3.org/2000/svg" xmlns:xlink="http://www.w3.org/1999/xlink" width="500" zoomAndPan="magnify" viewBox="0 0 375 374.999991" height="500" preserveAspectRatio="xMidYMid meet" version="1.0"><defs><clipPath id="9d2385d65e"><path d="M 17.074219 293 L 357.574219 293 L 357.574219 310 L 17.074219 310 Z M 17.074219 293 " clip-rule="nonzero"/></clipPath><clipPath id="2a935b11e8"><path d="M 17.074219 314 L 357.574219 314 L 357.574219 330.75 L 17.074219 330.75 Z M 17.074219 314 " clip-rule="nonzero"/></clipPath><clipPath id="96013800f5"><path d="M 104 37.5 L 271 37.5 L 271 208 L 104 208 Z M 104 37.5 " clip-rule="nonzero"/></clipPath></defs><rect x="-37.5" width="450" fill="#ffffff" y="-37.499999" height="449.999989" fill-opacity="1"/><rect x="-37.5" width="450" fill="#005aa3" y="-37.499999" height="449.999989" fill-opacity="1"/><g clip-path="url(#9d2385d65e)"><path fill="#ffffff" d="M 22.398438 303.898438 C 31.984375 303.898438 36.777344 305.226562 41.570312 306.292969 C 46.898438 307.625 52.488281 309.222656 63.40625 309.222656 C 74.324219 309.222656 79.917969 307.890625 85.242188 306.292969 C 90.304688 304.960938 94.828125 303.898438 104.417969 303.898438 C 114.003906 303.898438 118.796875 305.226562 123.589844 306.292969 C 128.914062 307.625 134.507812 309.222656 145.425781 309.222656 C 156.34375 309.222656 161.933594 307.890625 167.261719 306.292969 C 172.320312 304.960938 176.847656 303.898438 186.433594 303.898438 C 196.019531 303.898438 200.8125 305.226562 205.871094 306.292969 C 211.199219 307.625 216.789062 309.222656 227.976562 309.222656 C 239.160156 309.222656 244.484375 307.890625 249.8125 306.292969 C 254.871094 304.960938 259.398438 303.898438 268.984375 303.898438 C 278.570312 303.898438 283.363281 305.226562 288.421875 306.292969 C 293.75 307.625 299.339844 309.222656 310.523438 309.222656 C 321.710938 309.222656 327.035156 307.890625 332.628906 306.292969 C 337.6875 304.960938 342.214844 303.898438 352.066406 303.898438 C 354.996094 303.898438 357.390625 301.5 357.390625 298.570312 C 357.390625 295.640625 354.996094 293.246094 352.066406 293.246094 C 341.148438 293.246094 335.554688 294.578125 329.964844 296.175781 C 324.90625 297.507812 320.378906 298.570312 310.523438 298.570312 C 300.9375 298.570312 296.144531 297.238281 291.085938 296.175781 C 285.761719 294.84375 280.167969 293.246094 268.984375 293.246094 C 258.066406 293.246094 252.472656 294.578125 247.148438 296.175781 C 242.089844 297.507812 237.5625 298.570312 227.976562 298.570312 C 218.386719 298.570312 213.59375 297.238281 208.535156 296.175781 C 203.210938 294.84375 197.617188 293.246094 186.433594 293.246094 C 175.515625 293.246094 169.921875 294.578125 164.597656 296.175781 C 159.539062 297.507812 155.011719 298.570312 145.425781 298.570312 C 135.839844 298.570312 131.046875 297.238281 126.253906 296.175781 C 120.925781 294.84375 115.335938 293.246094 104.417969 293.246094 C 93.5 293.246094 87.90625 294.578125 82.582031 296.175781 C 77.519531 297.507812 72.992188 298.570312 63.40625 298.570312 C 53.820312 298.570312 49.027344 297.238281 44.234375 296.175781 C 38.910156 294.84375 33.316406 293.246094 22.398438 293.246094 C 19.46875 293.246094 17.074219 295.640625 17.074219 298.570312 C 17.074219 301.5 19.46875 303.898438 22.398438 303.898438 Z M 22.398438 303.898438 " fill-opacity="1" fill-rule="nonzero"/></g><g clip-path="url(#2a935b11e8)"><path fill="#ffffff" d="M 352.597656 314.546875 C 341.679688 314.546875 336.089844 315.878906 330.496094 317.476562 C 325.4375 318.808594 320.910156 319.875 311.058594 319.875 C 301.472656 319.875 296.679688 318.542969 291.617188 317.476562 C 286.292969 316.144531 280.699219 314.546875 269.515625 314.546875 C 258.597656 314.546875 253.007812 315.878906 247.679688 317.476562 C 242.621094 318.808594 238.09375 319.875 228.507812 319.875 C 218.921875 319.875 214.128906 318.542969 209.066406 317.476562 C 203.742188 316.144531 198.152344 314.546875 186.964844 314.546875 C 176.046875 314.546875 170.457031 315.878906 165.128906 317.476562 C 160.070312 318.808594 155.542969 319.875 145.957031 319.875 C 136.371094 319.875 131.578125 318.542969 126.785156 317.476562 C 121.457031 316.144531 115.867188 314.546875 104.949219 314.546875 C 94.03125 314.546875 88.4375 315.878906 83.113281 317.476562 C 78.054688 318.808594 73.527344 319.875 63.941406 319.875 C 54.355469 319.875 49.558594 318.542969 44.765625 317.476562 C 39.441406 316.144531 33.847656 314.546875 22.929688 314.546875 C 20.003906 314.546875 17.605469 316.945312 17.605469 319.875 C 17.605469 322.804688 20.003906 325.199219 22.929688 325.199219 C 32.519531 325.199219 37.3125 326.53125 42.105469 327.597656 C 47.429688 328.929688 53.023438 330.527344 63.941406 330.527344 C 74.859375 330.527344 80.449219 329.195312 85.777344 327.597656 C 90.835938 326.265625 95.363281 325.199219 104.949219 325.199219 C 114.535156 325.199219 119.328125 326.53125 124.121094 327.597656 C 129.449219 328.929688 135.039062 330.527344 145.957031 330.527344 C 156.875 330.527344 162.46875 329.195312 167.792969 327.597656 C 172.851562 326.265625 177.378906 325.199219 186.964844 325.199219 C 196.550781 325.199219 201.347656 326.53125 206.40625 327.597656 C 211.730469 328.929688 217.324219 330.527344 228.507812 330.527344 C 239.691406 330.527344 245.015625 329.195312 250.34375 327.597656 C 255.402344 326.265625 259.929688 325.199219 269.515625 325.199219 C 279.101562 325.199219 283.894531 326.53125 288.957031 327.597656 C 294.28125 328.929688 299.875 330.527344 311.058594 330.527344 C 322.242188 330.527344 327.566406 329.195312 333.160156 327.597656 C 338.21875 326.265625 342.746094 325.199219 352.597656 325.199219 C 355.527344 325.199219 357.925781 322.804688 357.925781 319.875 C 357.925781 316.945312 355.527344 314.546875 352.597656 314.546875 Z M 352.597656 314.546875 " fill-opacity="1" fill-rule="nonzero"/></g><g clip-path="url(#96013800f5)"><path fill="#ffffff" d="M 115.601562 149.449219 L 259.398438 149.449219 L 259.398438 201.375 L 270.046875 207.5 L 270.046875 144.121094 C 270.046875 141.195312 267.652344 138.796875 264.722656 138.796875 L 251.410156 138.796875 L 251.410156 112.167969 C 251.410156 109.238281 249.011719 106.84375 246.082031 106.84375 L 222.117188 106.84375 L 222.117188 85.539062 C 222.117188 82.609375 219.71875 80.214844 216.789062 80.214844 L 206.140625 80.214844 L 206.140625 42.933594 C 206.140625 40.003906 203.742188 37.605469 200.8125 37.605469 C 197.882812 37.605469 195.488281 40.003906 195.488281 42.933594 L 195.488281 80.214844 L 179.511719 80.214844 L 179.511719 58.910156 C 179.511719 55.980469 177.113281 53.585938 174.183594 53.585938 C 171.253906 53.585938 168.859375 55.980469 168.859375 58.910156 L 168.859375 80.214844 L 158.207031 80.214844 C 155.277344 80.214844 152.882812 82.609375 152.882812 85.539062 L 152.882812 106.84375 L 128.914062 106.84375 C 125.984375 106.84375 123.589844 109.238281 123.589844 112.167969 L 123.589844 138.796875 L 110.273438 138.796875 C 107.34375 138.796875 104.949219 141.195312 104.949219 144.121094 L 104.949219 207.5 L 115.601562 201.375 Z M 227.441406 125.484375 C 229.039062 125.484375 230.105469 126.546875 230.105469 128.144531 C 230.105469 129.742188 229.039062 130.808594 227.441406 130.808594 C 225.84375 130.808594 224.78125 129.742188 224.78125 128.144531 C 224.78125 126.546875 225.84375 125.484375 227.441406 125.484375 Z M 179.511719 130.808594 C 177.914062 130.808594 176.847656 129.742188 176.847656 128.144531 C 176.847656 126.546875 177.914062 125.484375 179.511719 125.484375 C 181.109375 125.484375 182.171875 126.546875 182.171875 128.144531 C 182.171875 129.742188 181.109375 130.808594 179.511719 130.808594 Z M 195.488281 130.808594 C 193.890625 130.808594 192.824219 129.742188 192.824219 128.144531 C 192.824219 126.546875 193.890625 125.484375 195.488281 125.484375 C 197.085938 125.484375 198.152344 126.546875 198.152344 128.144531 C 198.152344 129.742188 197.085938 130.808594 195.488281 130.808594 Z M 214.128906 128.144531 C 214.128906 129.742188 213.0625 130.808594 211.464844 130.808594 C 209.867188 130.808594 208.800781 129.742188 208.800781 128.144531 C 208.800781 126.546875 209.867188 125.484375 211.464844 125.484375 C 213.0625 125.484375 214.128906 126.546875 214.128906 128.144531 Z M 163.53125 90.863281 L 211.464844 90.863281 L 211.464844 106.84375 L 163.53125 106.84375 Z M 163.53125 125.484375 C 165.128906 125.484375 166.195312 126.546875 166.195312 128.144531 C 166.195312 129.742188 165.128906 130.808594 163.53125 130.808594 C 161.933594 130.808594 160.871094 129.742188 160.871094 128.144531 C 160.871094 126.546875 161.933594 125.484375 163.53125 125.484375 Z M 147.554688 125.484375 C 149.152344 125.484375 150.21875 126.546875 150.21875 128.144531 C 150.21875 129.742188 149.152344 130.808594 147.554688 130.808594 C 145.957031 130.808594 144.890625 129.742188 144.890625 128.144531 C 144.890625 126.546875 145.957031 125.484375 147.554688 125.484375 Z M 147.554688 125.484375 " fill-opacity="1" fill-rule="nonzero"/></g><path fill="#ffffff" d="M 136.902344 165.425781 C 136.902344 165.777344 136.871094 166.121094 136.800781 166.464844 C 136.734375 166.808594 136.632812 167.140625 136.5 167.464844 C 136.363281 167.789062 136.199219 168.09375 136.007812 168.386719 C 135.8125 168.675781 135.589844 168.945312 135.34375 169.191406 C 135.097656 169.4375 134.828125 169.660156 134.535156 169.855469 C 134.246094 170.046875 133.9375 170.210938 133.617188 170.347656 C 133.292969 170.480469 132.960938 170.582031 132.617188 170.648438 C 132.273438 170.71875 131.925781 170.75 131.578125 170.75 C 131.226562 170.75 130.882812 170.71875 130.539062 170.648438 C 130.195312 170.582031 129.863281 170.480469 129.539062 170.347656 C 129.214844 170.210938 128.910156 170.046875 128.617188 169.855469 C 128.328125 169.660156 128.058594 169.4375 127.8125 169.191406 C 127.566406 168.945312 127.34375 168.675781 127.148438 168.386719 C 126.957031 168.09375 126.792969 167.789062 126.65625 167.464844 C 126.523438 167.140625 126.421875 166.808594 126.355469 166.464844 C 126.285156 166.121094 126.253906 165.777344 126.253906 165.425781 C 126.253906 165.078125 126.285156 164.730469 126.355469 164.386719 C 126.421875 164.042969 126.523438 163.710938 126.65625 163.386719 C 126.792969 163.066406 126.957031 162.757812 127.148438 162.46875 C 127.34375 162.175781 127.566406 161.90625 127.8125 161.660156 C 128.058594 161.414062 128.328125 161.191406 128.617188 160.996094 C 128.910156 160.804688 129.214844 160.640625 129.539062 160.503906 C 129.863281 160.371094 130.195312 160.269531 130.539062 160.203125 C 130.882812 160.132812 131.226562 160.101562 131.578125 160.101562 C 131.925781 160.101562 132.273438 160.132812 132.617188 160.203125 C 132.960938 160.269531 133.292969 160.371094 133.617188 160.503906 C 133.9375 160.640625 134.246094 160.804688 134.535156 160.996094 C 134.828125 161.191406 135.097656 161.414062 135.34375 161.660156 C 135.589844 161.90625 135.8125 162.175781 136.007812 162.46875 C 136.199219 162.757812 136.363281 163.066406 136.5 163.386719 C 136.632812 163.710938 136.734375 164.042969 136.800781 164.386719 C 136.871094 164.730469 136.902344 165.078125 136.902344 165.425781 Z M 136.902344 165.425781 " fill-opacity="1" fill-rule="nonzero"/><path fill="#ffffff" d="M 248.746094 165.425781 C 248.746094 165.777344 248.710938 166.121094 248.644531 166.464844 C 248.574219 166.808594 248.472656 167.140625 248.339844 167.464844 C 248.207031 167.789062 248.042969 168.09375 247.847656 168.386719 C 247.652344 168.675781 247.433594 168.945312 247.1875 169.191406 C 246.9375 169.4375 246.667969 169.660156 246.378906 169.855469 C 246.085938 170.046875 245.78125 170.210938 245.457031 170.347656 C 245.132812 170.480469 244.800781 170.582031 244.457031 170.648438 C 244.117188 170.71875 243.769531 170.75 243.417969 170.75 C 243.070312 170.75 242.722656 170.71875 242.378906 170.648438 C 242.039062 170.582031 241.703125 170.480469 241.382812 170.347656 C 241.058594 170.210938 240.75 170.046875 240.460938 169.855469 C 240.171875 169.660156 239.902344 169.4375 239.652344 169.191406 C 239.40625 168.945312 239.1875 168.675781 238.992188 168.386719 C 238.796875 168.09375 238.632812 167.789062 238.5 167.464844 C 238.367188 167.140625 238.265625 166.808594 238.195312 166.464844 C 238.128906 166.121094 238.09375 165.777344 238.09375 165.425781 C 238.09375 165.078125 238.128906 164.730469 238.195312 164.386719 C 238.265625 164.042969 238.367188 163.710938 238.5 163.386719 C 238.632812 163.066406 238.796875 162.757812 238.992188 162.46875 C 239.1875 162.175781 239.40625 161.90625 239.652344 161.660156 C 239.902344 161.414062 240.171875 161.191406 240.460938 160.996094 C 240.75 160.804688 241.058594 160.640625 241.382812 160.503906 C 241.703125 160.371094 242.039062 160.269531 242.378906 160.203125 C 242.722656 160.132812 243.070312 160.101562 243.417969 160.101562 C 243.769531 160.101562 244.117188 160.132812 244.457031 160.203125 C 244.800781 160.269531 245.132812 160.371094 245.457031 160.503906 C 245.78125 160.640625 246.085938 160.804688 246.378906 160.996094 C 246.667969 161.191406 246.9375 161.414062 247.1875 161.660156 C 247.433594 161.90625 247.652344 162.175781 247.847656 162.46875 C 248.042969 162.757812 248.207031 163.066406 248.339844 163.386719 C 248.472656 163.710938 248.574219 164.042969 248.644531 164.386719 C 248.710938 164.730469 248.746094 165.078125 248.746094 165.425781 Z M 248.746094 165.425781 " fill-opacity="1" fill-rule="nonzero"/><path fill="#ffffff" d="M 103.085938 244.515625 L 182.171875 199.511719 L 182.171875 175.546875 L 94.296875 225.609375 C 92.964844 226.40625 91.902344 227.738281 91.632812 229.335938 C 91.367188 230.933594 91.902344 232.53125 92.964844 233.863281 Z M 103.085938 244.515625 " fill-opacity="1" fill-rule="nonzero"/><path fill="#ffffff" d="M 192.824219 199.511719 L 271.914062 244.515625 L 282.03125 233.863281 C 283.097656 232.796875 283.628906 230.933594 283.363281 229.335938 C 283.097656 227.738281 282.03125 226.40625 280.699219 225.609375 L 192.824219 175.546875 Z M 192.824219 199.511719 " fill-opacity="1" fill-rule="nonzero"/><path fill="#ffffff" d="M 99.621094 271.941406 C 99.621094 274.871094 102.019531 277.269531 104.949219 277.269531 C 114.535156 277.269531 119.328125 278.597656 124.121094 279.664062 C 129.449219 280.996094 135.039062 282.59375 145.957031 282.59375 C 156.875 282.59375 162.46875 281.261719 167.792969 279.664062 C 172.851562 278.332031 177.378906 277.269531 186.964844 277.269531 C 196.550781 277.269531 201.347656 278.597656 206.40625 279.664062 C 211.730469 280.996094 217.324219 282.59375 228.507812 282.59375 C 239.691406 282.59375 245.015625 281.261719 250.34375 279.664062 C 255.402344 278.332031 259.929688 277.269531 269.515625 277.269531 C 272.445312 277.269531 274.84375 274.871094 274.84375 271.941406 C 274.84375 269.011719 272.445312 266.617188 269.515625 266.617188 C 258.863281 266.617188 253.273438 267.949219 247.945312 269.277344 L 263.925781 252.503906 L 192.824219 211.761719 L 192.824219 266.617188 C 191.226562 266.617188 189.363281 266.351562 187.5 266.351562 C 185.636719 266.351562 183.769531 266.351562 182.171875 266.617188 L 182.171875 211.761719 L 110.808594 252.503906 L 126.785156 269.277344 C 121.457031 267.949219 115.867188 266.617188 104.949219 266.617188 C 102.019531 266.617188 99.621094 269.011719 99.621094 271.941406 Z M 99.621094 271.941406 " fill-opacity="1" fill-rule="nonzero"/></svg>