<svg xmlns="http://www.w3.org/2000/svg" xmlns:xlink="http://www.w3.org/1999/xlink" width="500" zoomAndPan="magnify" viewBox="0 0 375 374.999991" height="500" preserveAspectRatio="xMidYMid meet" version="1.0"><defs><clipPath id="a8e1e0802c"><path d="M 256 219 L 317 219 L 317 280.019531 L 256 280.019531 Z M 256 219 " clip-rule="nonzero"/></clipPath><clipPath id="9f27a9e958"><path d="M 118 219 L 179 219 L 179 280.019531 L 118 280.019531 Z M 118 219 " clip-rule="nonzero"/></clipPath><clipPath id="18c5256329"><path d="M 65 94.769531 L 245 94.769531 L 245 136 L 65 136 Z M 65 94.769531 " clip-rule="nonzero"/></clipPath></defs><rect x="-37.5" width="450" fill="#ffffff" y="-37.499999" height="449.999989" fill-opacity="1"/><rect x="-37.5" width="450" fill="#459a45" y="-37.499999" height="449.999989" fill-opacity="1"/><path fill="#ffffff" d="M 257.457031 255.289062 L 176.105469 255.289062 C 173.132812 255.289062 170.730469 252.882812 170.730469 249.910156 C 170.730469 246.941406 173.132812 244.53125 176.105469 244.53125 L 257.457031 244.53125 C 260.433594 244.53125 262.835938 246.941406 262.835938 249.910156 C 262.835938 252.882812 260.433594 255.289062 257.457031 255.289062 " fill-opacity="1" fill-rule="nonzero"/><path fill="#ffffff" d="M 337.546875 255.289062 L 316.417969 255.289062 C 313.449219 255.289062 311.042969 252.886719 311.042969 249.910156 C 311.042969 246.941406 313.449219 244.535156 316.417969 244.535156 L 332.164062 244.535156 L 332.164062 214.863281 C 332.164062 175.730469 304.382812 141.671875 266.105469 133.878906 C 260.679688 132.777344 255.105469 132.21875 249.515625 132.21875 L 242.003906 132.21875 C 239.035156 132.21875 236.628906 129.8125 236.628906 126.84375 C 236.628906 123.867188 239.035156 121.460938 242.003906 121.460938 L 249.515625 121.460938 C 255.816406 121.460938 262.121094 122.09375 268.246094 123.34375 C 311.515625 132.152344 342.921875 170.640625 342.921875 214.863281 L 342.921875 249.910156 C 342.921875 252.886719 340.515625 255.289062 337.546875 255.289062 " fill-opacity="1" fill-rule="nonzero"/><path fill="#ffffff" d="M 120.609375 255.289062 L 95.390625 255.289062 C 92.417969 255.289062 90.011719 252.882812 90.011719 249.910156 C 90.011719 246.941406 92.417969 244.53125 95.390625 244.53125 L 120.609375 244.53125 C 123.582031 244.53125 125.988281 246.941406 125.988281 249.910156 C 125.988281 252.882812 123.582031 255.289062 120.609375 255.289062 " fill-opacity="1" fill-rule="nonzero"/><path fill="#ffffff" d="M 335.382812 201.164062 L 268.175781 201.164062 C 265.199219 201.164062 262.796875 198.757812 262.796875 195.785156 L 262.796875 128.609375 C 262.796875 125.636719 265.199219 123.230469 268.175781 123.230469 C 271.148438 123.230469 273.550781 125.636719 273.550781 128.609375 L 273.550781 190.40625 L 335.382812 190.40625 C 338.355469 190.40625 340.761719 192.816406 340.761719 195.785156 C 340.761719 198.757812 338.355469 201.164062 335.382812 201.164062 " fill-opacity="1" fill-rule="nonzero"/><g clip-path="url(#a8e1e0802c)"><path fill="#ffffff" d="M 286.464844 230.382812 C 275.695312 230.382812 266.933594 239.144531 266.933594 249.910156 C 266.933594 260.683594 275.695312 269.445312 286.464844 269.445312 C 297.230469 269.445312 305.992188 260.683594 305.992188 249.910156 C 305.992188 239.144531 297.230469 230.382812 286.464844 230.382812 Z M 286.464844 280.203125 C 269.757812 280.203125 256.179688 266.613281 256.179688 249.910156 C 256.179688 233.214844 269.757812 219.625 286.464844 219.625 C 303.164062 219.625 316.746094 233.214844 316.746094 249.910156 C 316.746094 266.613281 303.164062 280.203125 286.464844 280.203125 " fill-opacity="1" fill-rule="nonzero"/></g><g clip-path="url(#9f27a9e958)"><path fill="#ffffff" d="M 148.359375 230.382812 C 137.589844 230.382812 128.832031 239.144531 128.832031 249.910156 C 128.832031 260.683594 137.589844 269.445312 148.359375 269.445312 C 159.132812 269.445312 167.890625 260.683594 167.890625 249.910156 C 167.890625 239.144531 159.132812 230.382812 148.359375 230.382812 Z M 148.359375 280.203125 C 131.664062 280.203125 118.074219 266.613281 118.074219 249.910156 C 118.074219 233.214844 131.664062 219.625 148.359375 219.625 C 165.0625 219.625 178.648438 233.214844 178.648438 249.910156 C 178.648438 266.613281 165.0625 280.203125 148.359375 280.203125 " fill-opacity="1" fill-rule="nonzero"/></g><path fill="#ffffff" d="M 238.699219 217.144531 L 95.390625 217.144531 C 92.417969 217.144531 90.011719 214.738281 90.011719 211.765625 C 90.011719 208.792969 92.417969 206.386719 95.390625 206.386719 L 233.320312 206.386719 L 233.320312 126.839844 C 233.320312 123.867188 235.726562 121.460938 238.699219 121.460938 C 241.671875 121.460938 244.078125 123.867188 244.078125 126.839844 L 244.078125 211.765625 C 244.078125 214.738281 241.671875 217.144531 238.699219 217.144531 " fill-opacity="1" fill-rule="nonzero"/><g clip-path="url(#18c5256329)"><path fill="#ffffff" d="M 238.699219 135.238281 C 235.726562 135.238281 233.320312 132.832031 233.320312 129.859375 L 233.320312 105.519531 L 70.792969 105.519531 C 67.820312 105.519531 65.414062 103.113281 65.414062 100.140625 C 65.414062 97.171875 67.820312 94.765625 70.792969 94.765625 L 238.699219 94.765625 C 241.671875 94.765625 244.078125 97.171875 244.078125 100.140625 L 244.078125 129.859375 C 244.078125 132.832031 241.671875 135.238281 238.699219 135.238281 " fill-opacity="1" fill-rule="nonzero"/></g><path fill="#ffffff" d="M 105.515625 217.144531 L 95.390625 217.144531 C 92.417969 217.144531 90.011719 214.738281 90.011719 211.765625 C 90.011719 208.792969 92.417969 206.386719 95.390625 206.386719 L 105.515625 206.386719 C 108.488281 206.386719 110.894531 208.792969 110.894531 211.765625 C 110.894531 214.738281 108.488281 217.144531 105.515625 217.144531 " fill-opacity="1" fill-rule="nonzero"/><path fill="#ffffff" d="M 125.421875 133.988281 L 48.800781 133.988281 C 45.828125 133.988281 43.421875 131.582031 43.421875 128.609375 C 43.421875 125.636719 45.828125 123.230469 48.800781 123.230469 L 125.421875 123.230469 C 128.394531 123.230469 130.800781 125.636719 130.800781 128.609375 C 130.800781 131.582031 128.394531 133.988281 125.421875 133.988281 " fill-opacity="1" fill-rule="nonzero"/><path fill="#ffffff" d="M 113.125 162.800781 L 63.625 162.800781 C 60.652344 162.800781 58.246094 160.394531 58.246094 157.421875 C 58.246094 154.453125 60.652344 152.046875 63.625 152.046875 L 113.125 152.046875 C 116.097656 152.046875 118.503906 154.453125 118.503906 157.421875 C 118.503906 160.394531 116.097656 162.800781 113.125 162.800781 " fill-opacity="1" fill-rule="nonzero"/><path fill="#ffffff" d="M 140.867188 192.863281 L 37.453125 192.863281 C 34.480469 192.863281 32.074219 190.457031 32.074219 187.484375 C 32.074219 184.507812 34.480469 182.105469 37.453125 182.105469 L 140.867188 182.105469 C 143.839844 182.105469 146.246094 184.507812 146.246094 187.484375 C 146.246094 190.457031 143.839844 192.863281 140.867188 192.863281 " fill-opacity="1" fill-rule="nonzero"/><path fill="#ffffff" d="M 95.390625 236.269531 L 58.574219 236.269531 C 55.601562 236.269531 53.199219 233.867188 53.199219 230.894531 C 53.199219 227.917969 55.601562 225.515625 58.574219 225.515625 L 95.390625 225.515625 C 98.363281 225.515625 100.769531 227.917969 100.769531 230.894531 C 100.769531 233.867188 98.363281 236.269531 95.390625 236.269531 " fill-opacity="1" fill-rule="nonzero"/></svg>