<svg xmlns="http://www.w3.org/2000/svg" xmlns:xlink="http://www.w3.org/1999/xlink" width="500" zoomAndPan="magnify" viewBox="0 0 375 374.999991" height="500" preserveAspectRatio="xMidYMid meet" version="1.0"><defs><clipPath id="c636e2f4be"><path d="M 58.089844 37.5 L 316.839844 37.5 L 316.839844 342.75 L 58.089844 342.75 Z M 58.089844 37.5 " clip-rule="nonzero"/></clipPath></defs><rect x="-37.5" width="450" fill="#ffffff" y="-37.499999" height="449.999989" fill-opacity="1"/><rect x="-37.5" width="450" fill="#f3b228" y="-37.499999" height="449.999989" fill-opacity="1"/><g clip-path="url(#c636e2f4be)"><path fill="#ffffff" d="M 192.445312 53.445312 L 192.445312 42.449219 C 192.445312 39.71875 190.226562 37.5 187.496094 37.5 C 184.761719 37.5 182.546875 39.71875 182.546875 42.449219 L 182.546875 53.410156 C 113.496094 55.371094 58.144531 98.15625 58.144531 150.488281 C 58.144531 153.222656 60.363281 155.441406 63.09375 155.441406 C 65.824219 155.441406 68.042969 153.222656 68.042969 150.488281 C 68.042969 145.988281 78.234375 139.496094 94.179688 139.496094 C 110.121094 139.496094 120.3125 146.023438 120.3125 150.488281 C 120.3125 153.222656 122.53125 155.441406 125.261719 155.441406 C 127.996094 155.441406 130.210938 153.222656 130.210938 150.488281 C 130.210938 145.988281 140.402344 139.496094 156.410156 139.496094 C 172.355469 139.496094 182.546875 146.023438 182.546875 150.488281 C 182.546875 150.523438 182.578125 150.554688 182.578125 150.617188 L 182.578125 173.667969 L 113.015625 210.472656 C 111.40625 211.339844 110.378906 213.011719 110.378906 214.84375 L 110.378906 299.738281 C 110.378906 301.574219 111.40625 303.277344 113.015625 304.113281 L 185.179688 342.300781 C 185.921875 342.6875 186.691406 342.878906 187.496094 342.878906 C 188.300781 342.878906 189.101562 342.6875 189.808594 342.300781 L 261.976562 304.113281 C 263.582031 303.242188 264.613281 301.574219 264.613281 299.738281 L 264.613281 214.84375 C 264.613281 213.011719 263.582031 211.308594 261.976562 210.472656 L 192.445312 173.667969 L 192.445312 150.425781 C 192.574219 145.957031 202.730469 139.527344 218.613281 139.527344 C 234.554688 139.527344 244.746094 146.054688 244.746094 150.523438 C 244.746094 153.253906 246.964844 155.472656 249.695312 155.472656 C 252.429688 155.472656 254.648438 153.253906 254.648438 150.523438 C 254.648438 146.023438 264.835938 139.527344 280.8125 139.527344 C 296.757812 139.527344 306.945312 146.054688 306.945312 150.523438 C 306.945312 153.253906 309.164062 155.472656 311.898438 155.472656 C 314.628906 155.472656 316.847656 153.253906 316.847656 150.523438 C 316.847656 98.191406 261.492188 55.40625 192.445312 53.445312 Z M 187.496094 247.441406 L 161.328125 233.585938 L 185.308594 220.886719 C 187.71875 219.601562 188.652344 216.613281 187.367188 214.203125 C 186.082031 211.789062 183.089844 210.859375 180.679688 212.144531 L 150.722656 227.992188 L 125.90625 214.875 L 187.496094 182.25 L 249.085938 214.84375 Z M 94.179688 129.597656 C 84.695312 129.597656 76.304688 131.492188 70.003906 134.738281 C 78.042969 102.625 110.28125 76.652344 152.328125 67.171875 C 135.066406 81.859375 122.914062 106.964844 120.699219 136.121094 C 114.203125 132.070312 104.914062 129.597656 94.179688 129.597656 Z M 156.378906 129.597656 C 146.125 129.597656 137.15625 131.8125 130.726562 135.542969 C 134.039062 97.195312 155.640625 66.945312 182.546875 63.601562 L 182.546875 135.894531 C 176.082031 131.972656 166.921875 129.597656 156.378906 129.597656 Z M 120.28125 223.074219 L 146.445312 236.929688 L 146.445312 270.839844 C 146.445312 273.574219 148.664062 275.792969 151.394531 275.792969 C 154.128906 275.792969 156.347656 273.574219 156.347656 270.839844 L 156.347656 242.167969 L 182.511719 256.023438 L 182.511719 329.699219 L 120.28125 296.75 Z M 192.445312 329.699219 L 192.445312 256.023438 L 254.710938 223.074219 L 254.710938 296.75 Z M 218.613281 129.597656 C 208.101562 129.597656 198.9375 131.972656 192.445312 135.863281 L 192.445312 63.601562 C 219.351562 66.945312 240.953125 97.195312 244.265625 135.574219 C 237.835938 131.847656 228.835938 129.597656 218.613281 129.597656 Z M 280.8125 129.597656 C 270.078125 129.597656 260.785156 132.070312 254.292969 136.089844 C 252.074219 106.933594 239.957031 81.859375 222.695312 67.171875 C 264.738281 76.683594 296.949219 102.625 305.019531 134.738281 C 298.683594 131.523438 290.296875 129.597656 280.8125 129.597656 Z M 280.8125 129.597656 " fill-opacity="1" fill-rule="nonzero"/></g></svg>