<svg xmlns="http://www.w3.org/2000/svg" xmlns:xlink="http://www.w3.org/1999/xlink" width="500" zoomAndPan="magnify" viewBox="0 0 375 374.999991" height="500" preserveAspectRatio="xMidYMid meet" version="1.0"><defs><clipPath id="350bb96a3a"><path d="M 72 135 L 328 135 L 328 332.789062 L 72 332.789062 Z M 72 135 " clip-rule="nonzero"/></clipPath></defs><rect x="-37.5" width="450" fill="#ffffff" y="-37.499999" height="449.999989" fill-opacity="1"/><rect x="-37.5" width="450" fill="#f47944" y="-37.499999" height="449.999989" fill-opacity="1"/><path fill="#ffffff" d="M 213.542969 118.988281 L 188.765625 107.0625 C 188.050781 106.714844 187.207031 106.714844 186.488281 107.0625 L 116.074219 140.890625 C 115.164062 141.328125 114.582031 142.246094 114.582031 143.261719 C 114.582031 144.269531 115.160156 145.1875 116.070312 145.628906 L 140.847656 157.5625 C 141.210938 157.738281 141.601562 157.824219 141.992188 157.824219 C 142.378906 157.824219 142.773438 157.734375 143.132812 157.5625 L 213.542969 123.730469 C 214.460938 123.292969 215.035156 122.367188 215.035156 121.359375 C 215.03125 120.34375 214.460938 119.425781 213.542969 118.988281 Z M 213.542969 118.988281 " fill-opacity="1" fill-rule="nonzero"/><path fill="#ffffff" d="M 103.988281 155.476562 C 103.222656 155.957031 102.757812 156.800781 102.757812 157.703125 L 102.757812 235.847656 C 102.757812 236.859375 103.335938 237.777344 104.25 238.21875 L 177.410156 273.445312 C 177.769531 273.621094 178.164062 273.699219 178.550781 273.699219 C 179.039062 273.699219 179.523438 273.5625 179.953125 273.300781 C 180.71875 272.824219 181.183594 271.976562 181.183594 271.074219 L 181.183594 192.929688 C 181.183594 191.917969 180.605469 190.996094 179.695312 190.558594 L 106.53125 155.335938 C 105.71875 154.941406 104.757812 154.992188 103.988281 155.476562 Z M 121.46875 192.5625 C 122.523438 190.359375 124.789062 188.933594 127.234375 188.933594 C 128.203125 188.933594 129.132812 189.152344 130.023438 189.582031 L 156.980469 202.546875 C 158.523438 203.285156 159.679688 204.582031 160.242188 206.203125 C 160.808594 207.816406 160.710938 209.558594 159.96875 211.105469 C 158.507812 214.160156 154.578125 215.628906 151.421875 214.089844 L 124.460938 201.121094 C 122.921875 200.386719 121.765625 199.09375 121.195312 197.476562 C 120.625 195.863281 120.722656 194.117188 121.46875 192.5625 Z M 121.46875 192.5625 " fill-opacity="1" fill-rule="nonzero"/><path fill="#ffffff" d="M 194.015625 192.933594 L 194.015625 271.074219 C 194.015625 271.980469 194.480469 272.824219 195.246094 273.304688 C 195.671875 273.566406 196.160156 273.699219 196.648438 273.699219 C 197.035156 273.699219 197.429688 273.621094 197.789062 273.449219 L 270.953125 238.222656 C 271.867188 237.78125 272.445312 236.863281 272.445312 235.851562 L 272.445312 157.75 C 272.445312 156.839844 271.984375 156 271.214844 155.519531 C 270.453125 155.039062 269.484375 154.984375 268.675781 155.371094 L 195.503906 190.558594 C 194.589844 190.996094 194.015625 191.921875 194.015625 192.933594 Z M 194.015625 192.933594 " fill-opacity="1" fill-rule="nonzero"/><path fill="#ffffff" d="M 259.144531 140.953125 L 234.410156 129.039062 C 233.691406 128.691406 232.851562 128.691406 232.128906 129.039062 L 161.707031 162.863281 C 160.796875 163.300781 160.210938 164.21875 160.210938 165.234375 C 160.210938 166.246094 160.792969 167.171875 161.707031 167.605469 L 186.460938 179.519531 C 186.820312 179.691406 187.207031 179.78125 187.601562 179.78125 C 187.992188 179.78125 188.382812 179.691406 188.742188 179.519531 L 259.144531 145.691406 C 260.054688 145.253906 260.636719 144.335938 260.636719 143.320312 C 260.632812 142.316406 260.054688 141.394531 259.144531 140.953125 Z M 259.144531 140.953125 " fill-opacity="1" fill-rule="nonzero"/><path fill="#ffffff" d="M 64.011719 248.976562 C 64.828125 248.976562 65.65625 248.824219 66.464844 248.5 C 69.835938 247.140625 71.464844 243.3125 70.109375 239.9375 C 49.164062 187.914062 64.46875 129.296875 108.1875 94.085938 C 153.621094 57.484375 216.84375 57.503906 261.960938 90.214844 L 249.53125 100.222656 C 247.453125 101.894531 246.59375 104.648438 247.34375 107.203125 C 248.089844 109.75 250.304688 111.609375 252.953125 111.890625 L 290.957031 115.976562 C 291.195312 116.003906 291.429688 116.019531 291.671875 116.019531 C 294.988281 116.019531 297.839844 113.519531 298.203125 110.144531 L 302.304688 72.152344 C 302.589844 69.507812 301.25 66.949219 298.917969 65.675781 C 296.578125 64.394531 293.710938 64.644531 291.632812 66.328125 L 272.550781 81.691406 C 222.578125 43.457031 151.050781 42.652344 99.933594 83.832031 C 51.667969 122.707031 34.78125 187.417969 57.902344 244.847656 C 58.9375 247.417969 61.40625 248.976562 64.011719 248.976562 Z M 64.011719 248.976562 " fill-opacity="1" fill-rule="nonzero"/><g clip-path="url(#350bb96a3a)"><path fill="#ffffff" d="M 316.792969 139.164062 C 315.402344 135.8125 311.554688 134.222656 308.1875 135.613281 C 304.832031 137.007812 303.242188 140.855469 304.628906 144.207031 C 326.019531 195.75 310.5625 256.234375 267.050781 291.292969 C 221.621094 327.890625 158.398438 327.867188 113.277344 295.152344 L 125.695312 285.144531 C 127.769531 283.480469 128.628906 280.722656 127.878906 278.175781 C 127.128906 275.617188 124.917969 273.765625 122.273438 273.480469 L 84.273438 269.378906 C 82.507812 269.183594 80.800781 269.703125 79.441406 270.796875 C 78.082031 271.890625 77.214844 273.480469 77.027344 275.21875 L 72.933594 313.214844 C 72.648438 315.859375 73.984375 318.417969 76.320312 319.691406 C 77.308594 320.226562 78.394531 320.5 79.476562 320.5 C 80.945312 320.5 82.410156 320.007812 83.605469 319.039062 L 102.6875 303.675781 C 127.457031 322.628906 157.507812 332.40625 187.765625 332.398438 C 218.546875 332.398438 249.527344 322.308594 275.308594 301.542969 C 323.347656 262.84375 340.402344 196.070312 316.792969 139.164062 Z M 316.792969 139.164062 " fill-opacity="1" fill-rule="nonzero"/></g></svg>