<svg xmlns="http://www.w3.org/2000/svg" xmlns:xlink="http://www.w3.org/1999/xlink" width="500" zoomAndPan="magnify" viewBox="0 0 375 374.999991" height="500" preserveAspectRatio="xMidYMid meet" version="1.0"><defs><clipPath id="418e6c5e0b"><path d="M 252 85.054688 L 330.96875 85.054688 L 330.96875 199 L 252 199 Z M 252 85.054688 " clip-rule="nonzero"/></clipPath><clipPath id="4f935876ea"><path d="M 43.71875 115 L 166 115 L 166 289.804688 L 43.71875 289.804688 Z M 43.71875 115 " clip-rule="nonzero"/></clipPath></defs><rect x="-37.5" width="450" fill="#ffffff" y="-37.499999" height="449.999989" fill-opacity="1"/><rect x="-37.5" width="450" fill="#737373" y="-37.499999" height="449.999989" fill-opacity="1"/><path fill="#ffffff" d="M 130.855469 176.515625 C 130.855469 175.660156 130.816406 174.804688 130.730469 173.953125 C 130.648438 173.101562 130.519531 172.253906 130.355469 171.414062 C 130.1875 170.574219 129.980469 169.746094 129.730469 168.925781 C 129.480469 168.105469 129.195312 167.300781 128.867188 166.511719 C 128.539062 165.71875 128.171875 164.945312 127.769531 164.191406 C 127.367188 163.4375 126.925781 162.703125 126.449219 161.992188 C 125.976562 161.277344 125.464844 160.59375 124.921875 159.929688 C 124.378906 159.269531 123.804688 158.636719 123.199219 158.03125 C 122.59375 157.425781 121.960938 156.851562 121.300781 156.308594 C 120.636719 155.765625 119.949219 155.253906 119.238281 154.777344 C 118.527344 154.304688 117.792969 153.863281 117.039062 153.460938 C 116.28125 153.054688 115.511719 152.691406 114.71875 152.363281 C 113.929688 152.035156 113.121094 151.746094 112.304688 151.5 C 111.484375 151.25 110.65625 151.042969 109.816406 150.875 C 108.976562 150.707031 108.128906 150.582031 107.277344 150.5 C 106.425781 150.414062 105.570312 150.371094 104.714844 150.371094 C 103.859375 150.371094 103.003906 150.414062 102.152344 150.5 C 101.300781 150.582031 100.453125 150.707031 99.617188 150.875 C 98.777344 151.042969 97.945312 151.25 97.125 151.5 C 96.308594 151.746094 95.503906 152.035156 94.710938 152.363281 C 93.921875 152.691406 93.148438 153.054688 92.390625 153.460938 C 91.636719 153.863281 90.902344 154.304688 90.191406 154.777344 C 89.480469 155.253906 88.792969 155.765625 88.132812 156.308594 C 87.46875 156.851562 86.835938 157.425781 86.230469 158.03125 C 85.625 158.636719 85.050781 159.269531 84.507812 159.929688 C 83.964844 160.59375 83.457031 161.277344 82.980469 161.992188 C 82.503906 162.703125 82.0625 163.4375 81.660156 164.191406 C 81.257812 164.945312 80.890625 165.71875 80.5625 166.511719 C 80.234375 167.300781 79.949219 168.105469 79.699219 168.925781 C 79.449219 169.746094 79.242188 170.574219 79.074219 171.414062 C 78.910156 172.253906 78.785156 173.101562 78.699219 173.953125 C 78.617188 174.804688 78.574219 175.660156 78.574219 176.515625 C 78.574219 177.371094 78.617188 178.226562 78.699219 179.078125 C 78.785156 179.929688 78.910156 180.773438 79.074219 181.613281 C 79.242188 182.453125 79.449219 183.285156 79.699219 184.101562 C 79.949219 184.921875 80.234375 185.726562 80.5625 186.519531 C 80.890625 187.308594 81.257812 188.082031 81.660156 188.835938 C 82.0625 189.59375 82.503906 190.324219 82.980469 191.039062 C 83.457031 191.75 83.964844 192.4375 84.507812 193.097656 C 85.050781 193.761719 85.625 194.394531 86.230469 195 C 86.835938 195.605469 87.46875 196.179688 88.132812 196.722656 C 88.792969 197.265625 89.480469 197.773438 90.191406 198.25 C 90.902344 198.726562 91.636719 199.164062 92.390625 199.570312 C 93.148438 199.972656 93.921875 200.339844 94.710938 200.664062 C 95.503906 200.992188 96.308594 201.28125 97.125 201.53125 C 97.945312 201.777344 98.777344 201.988281 99.617188 202.152344 C 100.453125 202.320312 101.300781 202.445312 102.152344 202.53125 C 103.003906 202.613281 103.859375 202.65625 104.714844 202.65625 C 105.570312 202.65625 106.425781 202.613281 107.277344 202.527344 C 108.128906 202.441406 108.972656 202.316406 109.8125 202.148438 C 110.652344 201.980469 111.480469 201.773438 112.300781 201.523438 C 113.121094 201.273438 113.925781 200.984375 114.714844 200.65625 C 115.503906 200.332031 116.277344 199.964844 117.03125 199.5625 C 117.789062 199.15625 118.519531 198.71875 119.230469 198.242188 C 119.941406 197.765625 120.628906 197.257812 121.292969 196.714844 C 121.953125 196.171875 122.585938 195.597656 123.191406 194.992188 C 123.796875 194.386719 124.371094 193.753906 124.914062 193.089844 C 125.457031 192.429688 125.964844 191.742188 126.441406 191.03125 C 126.917969 190.320312 127.359375 189.585938 127.761719 188.832031 C 128.164062 188.078125 128.53125 187.304688 128.859375 186.515625 C 129.1875 185.722656 129.476562 184.917969 129.722656 184.101562 C 129.972656 183.28125 130.183594 182.453125 130.347656 181.613281 C 130.515625 180.773438 130.644531 179.925781 130.726562 179.074219 C 130.8125 178.222656 130.855469 177.371094 130.855469 176.515625 Z M 87.289062 176.515625 C 87.289062 175.945312 87.316406 175.375 87.371094 174.804688 C 87.425781 174.238281 87.511719 173.675781 87.621094 173.113281 C 87.734375 172.554688 87.871094 172 88.039062 171.457031 C 88.203125 170.910156 88.394531 170.371094 88.613281 169.84375 C 88.832031 169.316406 89.078125 168.800781 89.34375 168.300781 C 89.613281 167.796875 89.90625 167.308594 90.226562 166.832031 C 90.542969 166.359375 90.882812 165.898438 91.242188 165.457031 C 91.605469 165.015625 91.988281 164.59375 92.390625 164.191406 C 92.796875 163.789062 93.21875 163.40625 93.660156 163.042969 C 94.101562 162.679688 94.558594 162.339844 95.03125 162.023438 C 95.507812 161.707031 95.996094 161.414062 96.5 161.144531 C 97.003906 160.875 97.519531 160.632812 98.046875 160.414062 C 98.574219 160.195312 99.109375 160.003906 99.65625 159.835938 C 100.203125 159.671875 100.753906 159.53125 101.316406 159.421875 C 101.875 159.308594 102.4375 159.226562 103.007812 159.171875 C 103.574219 159.113281 104.144531 159.085938 104.714844 159.085938 C 105.285156 159.085938 105.855469 159.113281 106.421875 159.171875 C 106.992188 159.226562 107.554688 159.308594 108.113281 159.421875 C 108.675781 159.53125 109.226562 159.671875 109.773438 159.835938 C 110.320312 160.003906 110.855469 160.195312 111.382812 160.414062 C 111.910156 160.632812 112.425781 160.875 112.929688 161.144531 C 113.433594 161.414062 113.921875 161.707031 114.398438 162.023438 C 114.871094 162.339844 115.328125 162.679688 115.769531 163.042969 C 116.210938 163.40625 116.632812 163.789062 117.039062 164.191406 C 117.441406 164.59375 117.824219 165.015625 118.1875 165.457031 C 118.550781 165.898438 118.886719 166.359375 119.207031 166.832031 C 119.523438 167.308594 119.816406 167.796875 120.085938 168.300781 C 120.355469 168.800781 120.597656 169.316406 120.816406 169.84375 C 121.035156 170.371094 121.226562 170.910156 121.390625 171.457031 C 121.558594 172 121.695312 172.554688 121.808594 173.113281 C 121.917969 173.675781 122.003906 174.238281 122.058594 174.804688 C 122.113281 175.375 122.144531 175.945312 122.144531 176.515625 C 122.144531 177.085938 122.113281 177.65625 122.058594 178.222656 C 122.003906 178.789062 121.917969 179.355469 121.808594 179.914062 C 121.695312 180.472656 121.558594 181.027344 121.390625 181.574219 C 121.226562 182.121094 121.035156 182.65625 120.816406 183.183594 C 120.597656 183.710938 120.355469 184.226562 120.085938 184.730469 C 119.816406 185.234375 119.523438 185.722656 119.207031 186.195312 C 118.886719 186.671875 118.550781 187.128906 118.1875 187.570312 C 117.824219 188.011719 117.441406 188.433594 117.039062 188.835938 C 116.632812 189.242188 116.210938 189.625 115.769531 189.984375 C 115.328125 190.347656 114.871094 190.6875 114.398438 191.003906 C 113.921875 191.320312 113.433594 191.613281 112.929688 191.882812 C 112.425781 192.152344 111.910156 192.398438 111.382812 192.617188 C 110.855469 192.832031 110.320312 193.027344 109.773438 193.191406 C 109.226562 193.355469 108.675781 193.496094 108.113281 193.605469 C 107.554688 193.71875 106.992188 193.800781 106.421875 193.859375 C 105.855469 193.914062 105.285156 193.941406 104.714844 193.941406 C 104.144531 193.941406 103.574219 193.914062 103.007812 193.855469 C 102.441406 193.800781 101.875 193.714844 101.316406 193.605469 C 100.757812 193.492188 100.203125 193.351562 99.660156 193.1875 C 99.113281 193.019531 98.574219 192.828125 98.050781 192.609375 C 97.523438 192.390625 97.007812 192.148438 96.503906 191.878906 C 96 191.609375 95.511719 191.316406 95.039062 191 C 94.5625 190.679688 94.105469 190.34375 93.664062 189.980469 C 93.222656 189.617188 92.800781 189.234375 92.398438 188.832031 C 91.996094 188.429688 91.613281 188.007812 91.25 187.566406 C 90.886719 187.125 90.546875 186.667969 90.230469 186.191406 C 89.914062 185.71875 89.621094 185.230469 89.351562 184.726562 C 89.082031 184.222656 88.839844 183.707031 88.621094 183.179688 C 88.402344 182.652344 88.207031 182.117188 88.042969 181.570312 C 87.875 181.023438 87.738281 180.472656 87.625 179.914062 C 87.515625 179.351562 87.429688 178.789062 87.375 178.222656 C 87.316406 177.652344 87.289062 177.085938 87.289062 176.515625 Z M 87.289062 176.515625 " fill-opacity="1" fill-rule="nonzero"/><path fill="#ffffff" d="M 309.488281 124.230469 C 309.488281 123.660156 309.460938 123.089844 309.40625 122.523438 C 309.347656 121.957031 309.265625 121.390625 309.152344 120.832031 C 309.042969 120.273438 308.902344 119.71875 308.738281 119.171875 C 308.574219 118.625 308.378906 118.089844 308.164062 117.5625 C 307.945312 117.035156 307.699219 116.519531 307.429688 116.015625 C 307.160156 115.511719 306.867188 115.023438 306.550781 114.550781 C 306.234375 114.074219 305.894531 113.617188 305.53125 113.175781 C 305.171875 112.734375 304.789062 112.3125 304.382812 111.910156 C 303.980469 111.503906 303.558594 111.121094 303.117188 110.761719 C 302.675781 110.398438 302.21875 110.058594 301.742188 109.742188 C 301.269531 109.425781 300.78125 109.132812 300.277344 108.863281 C 299.773438 108.59375 299.257812 108.347656 298.730469 108.128906 C 298.203125 107.914062 297.667969 107.71875 297.121094 107.554688 C 296.574219 107.390625 296.019531 107.25 295.460938 107.140625 C 294.902344 107.027344 294.335938 106.945312 293.769531 106.886719 C 293.203125 106.832031 292.632812 106.804688 292.0625 106.804688 C 291.492188 106.804688 290.921875 106.832031 290.351562 106.886719 C 289.785156 106.945312 289.222656 107.027344 288.660156 107.140625 C 288.101562 107.25 287.546875 107.390625 287.003906 107.554688 C 286.457031 107.71875 285.917969 107.914062 285.390625 108.128906 C 284.863281 108.347656 284.347656 108.59375 283.847656 108.863281 C 283.34375 109.132812 282.855469 109.425781 282.378906 109.742188 C 281.90625 110.058594 281.445312 110.398438 281.003906 110.761719 C 280.5625 111.121094 280.140625 111.503906 279.738281 111.910156 C 279.335938 112.3125 278.953125 112.734375 278.589844 113.175781 C 278.226562 113.617188 277.886719 114.074219 277.570312 114.550781 C 277.253906 115.023438 276.960938 115.511719 276.691406 116.015625 C 276.421875 116.519531 276.179688 117.035156 275.960938 117.5625 C 275.742188 118.089844 275.550781 118.625 275.382812 119.171875 C 275.21875 119.71875 275.078125 120.273438 274.96875 120.832031 C 274.855469 121.390625 274.773438 121.957031 274.71875 122.523438 C 274.660156 123.089844 274.632812 123.660156 274.632812 124.230469 C 274.632812 124.800781 274.660156 125.371094 274.71875 125.941406 C 274.773438 126.507812 274.855469 127.070312 274.96875 127.632812 C 275.078125 128.191406 275.21875 128.746094 275.382812 129.289062 C 275.550781 129.835938 275.742188 130.375 275.960938 130.902344 C 276.179688 131.429688 276.421875 131.945312 276.691406 132.445312 C 276.960938 132.949219 277.253906 133.4375 277.570312 133.914062 C 277.886719 134.386719 278.226562 134.847656 278.589844 135.289062 C 278.953125 135.730469 279.335938 136.152344 279.738281 136.554688 C 280.140625 136.957031 280.5625 137.339844 281.003906 137.703125 C 281.445312 138.066406 281.90625 138.40625 282.378906 138.722656 C 282.855469 139.039062 283.34375 139.332031 283.847656 139.601562 C 284.347656 139.871094 284.863281 140.113281 285.390625 140.332031 C 285.917969 140.550781 286.457031 140.742188 287.003906 140.910156 C 287.546875 141.074219 288.101562 141.214844 288.660156 141.324219 C 289.222656 141.4375 289.785156 141.519531 290.351562 141.574219 C 290.921875 141.632812 291.492188 141.660156 292.0625 141.660156 C 292.632812 141.660156 293.203125 141.628906 293.769531 141.574219 C 294.335938 141.515625 294.902344 141.433594 295.460938 141.320312 C 296.019531 141.210938 296.570312 141.070312 297.117188 140.90625 C 297.664062 140.738281 298.199219 140.546875 298.726562 140.328125 C 299.253906 140.109375 299.769531 139.863281 300.273438 139.59375 C 300.777344 139.328125 301.265625 139.03125 301.738281 138.714844 C 302.214844 138.398438 302.671875 138.058594 303.113281 137.695312 C 303.554688 137.335938 303.976562 136.953125 304.378906 136.550781 C 304.78125 136.144531 305.164062 135.722656 305.527344 135.28125 C 305.890625 134.839844 306.230469 134.382812 306.546875 133.910156 C 306.863281 133.433594 307.15625 132.945312 307.425781 132.441406 C 307.695312 131.941406 307.9375 131.425781 308.15625 130.898438 C 308.375 130.371094 308.566406 129.835938 308.734375 129.289062 C 308.898438 128.742188 309.039062 128.191406 309.152344 127.628906 C 309.261719 127.070312 309.347656 126.507812 309.402344 125.9375 C 309.460938 125.371094 309.488281 124.800781 309.488281 124.230469 Z M 283.347656 124.230469 C 283.347656 123.660156 283.402344 123.09375 283.515625 122.53125 C 283.625 121.96875 283.792969 121.425781 284.011719 120.898438 C 284.230469 120.367188 284.5 119.867188 284.816406 119.390625 C 285.132812 118.914062 285.496094 118.476562 285.898438 118.070312 C 286.304688 117.664062 286.746094 117.304688 287.21875 116.988281 C 287.695312 116.667969 288.199219 116.398438 288.726562 116.179688 C 289.253906 115.960938 289.800781 115.796875 290.363281 115.683594 C 290.921875 115.574219 291.488281 115.519531 292.0625 115.519531 C 292.632812 115.519531 293.199219 115.574219 293.761719 115.683594 C 294.324219 115.796875 294.867188 115.960938 295.394531 116.179688 C 295.925781 116.398438 296.425781 116.667969 296.902344 116.988281 C 297.378906 117.304688 297.820312 117.664062 298.222656 118.070312 C 298.628906 118.476562 298.988281 118.914062 299.308594 119.390625 C 299.625 119.867188 299.894531 120.367188 300.113281 120.898438 C 300.332031 121.425781 300.496094 121.96875 300.609375 122.53125 C 300.71875 123.09375 300.773438 123.660156 300.773438 124.230469 C 300.773438 124.804688 300.71875 125.371094 300.609375 125.933594 C 300.496094 126.492188 300.332031 127.039062 300.113281 127.566406 C 299.894531 128.09375 299.625 128.597656 299.308594 129.074219 C 298.988281 129.546875 298.628906 129.988281 298.222656 130.394531 C 297.820312 130.796875 297.378906 131.160156 296.902344 131.476562 C 296.425781 131.792969 295.925781 132.0625 295.394531 132.28125 C 294.867188 132.5 294.324219 132.667969 293.761719 132.777344 C 293.199219 132.890625 292.632812 132.945312 292.0625 132.945312 C 291.488281 132.945312 290.921875 132.886719 290.363281 132.777344 C 289.800781 132.664062 289.257812 132.5 288.726562 132.28125 C 288.199219 132.0625 287.699219 131.792969 287.222656 131.472656 C 286.746094 131.15625 286.308594 130.796875 285.902344 130.390625 C 285.496094 129.984375 285.136719 129.546875 284.820312 129.070312 C 284.5 128.59375 284.230469 128.09375 284.011719 127.566406 C 283.792969 127.035156 283.628906 126.492188 283.515625 125.929688 C 283.40625 125.371094 283.347656 124.804688 283.347656 124.230469 Z M 283.347656 124.230469 " fill-opacity="1" fill-rule="nonzero"/><g clip-path="url(#418e6c5e0b)"><path fill="#ffffff" d="M 312.148438 167.59375 C 321.570312 156.609375 331.273438 141.21875 331.273438 124.230469 C 331.273438 122.949219 331.210938 121.667969 331.085938 120.386719 C 330.957031 119.109375 330.769531 117.839844 330.519531 116.582031 C 330.269531 115.320312 329.957031 114.078125 329.585938 112.847656 C 329.210938 111.621094 328.78125 110.414062 328.289062 109.226562 C 327.796875 108.039062 327.25 106.878906 326.644531 105.746094 C 326.039062 104.613281 325.378906 103.515625 324.664062 102.445312 C 323.953125 101.378906 323.1875 100.347656 322.371094 99.355469 C 321.558594 98.363281 320.695312 97.414062 319.789062 96.503906 C 318.878906 95.597656 317.929688 94.734375 316.9375 93.921875 C 315.945312 93.105469 314.914062 92.339844 313.847656 91.628906 C 312.777344 90.914062 311.679688 90.253906 310.546875 89.648438 C 309.414062 89.042969 308.253906 88.496094 307.066406 88.003906 C 305.878906 87.511719 304.671875 87.082031 303.445312 86.707031 C 302.214844 86.335938 300.972656 86.023438 299.710938 85.773438 C 298.453125 85.523438 297.183594 85.335938 295.90625 85.207031 C 294.625 85.082031 293.34375 85.019531 292.0625 85.019531 C 290.777344 85.019531 289.496094 85.082031 288.21875 85.207031 C 286.941406 85.335938 285.671875 85.523438 284.410156 85.773438 C 283.152344 86.023438 281.90625 86.335938 280.679688 86.707031 C 279.449219 87.082031 278.242188 87.511719 277.054688 88.003906 C 275.867188 88.496094 274.710938 89.042969 273.578125 89.648438 C 272.445312 90.253906 271.34375 90.914062 270.277344 91.628906 C 269.207031 92.339844 268.179688 93.105469 267.1875 93.921875 C 266.191406 94.734375 265.242188 95.597656 264.335938 96.503906 C 263.425781 97.414062 262.566406 98.363281 261.75 99.355469 C 260.933594 100.347656 260.171875 101.378906 259.457031 102.445312 C 258.746094 103.515625 258.085938 104.613281 257.480469 105.746094 C 256.875 106.878906 256.324219 108.039062 255.835938 109.226562 C 255.34375 110.414062 254.910156 111.621094 254.539062 112.847656 C 254.164062 114.078125 253.851562 115.320312 253.601562 116.582031 C 253.351562 117.839844 253.164062 119.109375 253.039062 120.386719 C 252.914062 121.667969 252.847656 122.949219 252.847656 124.230469 C 252.847656 141.21875 262.550781 156.609375 271.972656 167.59375 C 267.378906 169.816406 264.148438 172.773438 262.609375 176.183594 C 262.386719 176.164062 262.203125 176.144531 261.957031 176.125 C 261.675781 176.101562 261.390625 176.105469 261.105469 176.140625 C 260.820312 176.171875 260.542969 176.230469 260.273438 176.320312 C 260 176.40625 259.738281 176.519531 259.488281 176.660156 C 259.238281 176.796875 259.003906 176.960938 258.789062 177.144531 C 258.570312 177.328125 258.371094 177.535156 258.195312 177.757812 C 258.015625 177.980469 257.863281 178.21875 257.730469 178.472656 C 257.601562 178.726562 257.496094 178.992188 257.417969 179.265625 C 257.335938 179.542969 257.285156 179.820312 257.261719 180.105469 C 257.238281 180.390625 257.242188 180.675781 257.277344 180.960938 C 257.308594 181.242188 257.367188 181.519531 257.453125 181.792969 C 257.542969 182.066406 257.652344 182.328125 257.792969 182.578125 C 257.929688 182.828125 258.09375 183.0625 258.277344 183.277344 C 258.460938 183.496094 258.664062 183.695312 258.886719 183.875 C 259.113281 184.050781 259.351562 184.207031 259.605469 184.339844 C 259.859375 184.46875 260.121094 184.574219 260.398438 184.652344 C 260.671875 184.734375 260.949219 184.785156 261.234375 184.808594 C 261.648438 184.84375 261.988281 184.875 262.347656 184.90625 C 265.371094 192.761719 277.125 198.296875 292.0625 198.296875 C 309.449219 198.296875 322.558594 190.804688 322.558594 180.871094 C 322.558594 175.5 318.75 170.789062 312.148438 167.59375 Z M 292.0625 93.734375 C 293.058594 93.734375 294.054688 93.785156 295.050781 93.882812 C 296.042969 93.980469 297.03125 94.128906 298.007812 94.324219 C 298.988281 94.519531 299.957031 94.765625 300.910156 95.054688 C 301.867188 95.34375 302.804688 95.679688 303.726562 96.0625 C 304.648438 96.445312 305.550781 96.875 306.429688 97.34375 C 307.3125 97.816406 308.167969 98.328125 308.996094 98.882812 C 309.828125 99.4375 310.628906 100.03125 311.398438 100.667969 C 312.171875 101.300781 312.910156 101.96875 313.617188 102.675781 C 314.324219 103.382812 314.992188 104.121094 315.625 104.894531 C 316.261719 105.664062 316.855469 106.464844 317.410156 107.296875 C 317.964844 108.125 318.476562 108.980469 318.949219 109.863281 C 319.417969 110.742188 319.847656 111.644531 320.230469 112.566406 C 320.613281 113.488281 320.949219 114.425781 321.238281 115.382812 C 321.527344 116.335938 321.773438 117.304688 321.96875 118.285156 C 322.164062 119.261719 322.3125 120.25 322.410156 121.242188 C 322.507812 122.238281 322.558594 123.234375 322.558594 124.230469 C 322.558594 147.460938 299.882812 168.648438 292.058594 175.265625 C 284.230469 168.65625 261.5625 147.511719 261.5625 124.230469 C 261.5625 123.234375 261.613281 122.238281 261.714844 121.242188 C 261.8125 120.25 261.960938 119.261719 262.15625 118.285156 C 262.351562 117.304688 262.59375 116.335938 262.882812 115.382812 C 263.175781 114.425781 263.511719 113.488281 263.894531 112.566406 C 264.277344 111.644531 264.703125 110.742188 265.175781 109.863281 C 265.644531 108.980469 266.160156 108.125 266.714844 107.296875 C 267.269531 106.464844 267.863281 105.664062 268.496094 104.894531 C 269.128906 104.121094 269.800781 103.382812 270.507812 102.675781 C 271.210938 101.96875 271.949219 101.300781 272.722656 100.667969 C 273.496094 100.03125 274.296875 99.4375 275.125 98.882812 C 275.957031 98.328125 276.8125 97.816406 277.691406 97.34375 C 278.570312 96.875 279.472656 96.445312 280.394531 96.0625 C 281.316406 95.679688 282.257812 95.34375 283.210938 95.054688 C 284.167969 94.765625 285.132812 94.519531 286.113281 94.324219 C 287.09375 94.128906 288.078125 93.980469 289.074219 93.882812 C 290.066406 93.785156 291.0625 93.734375 292.0625 93.734375 Z M 292.0625 189.585938 C 278.761719 189.585938 270.277344 184.425781 270.277344 180.871094 C 270.277344 178.953125 273 176.269531 278.234375 174.375 C 281.753906 177.945312 285.492188 181.273438 289.445312 184.355469 C 289.824219 184.640625 290.234375 184.855469 290.683594 185.003906 C 291.128906 185.152344 291.589844 185.226562 292.0625 185.226562 C 292.53125 185.226562 292.992188 185.152344 293.441406 185.003906 C 293.886719 184.855469 294.300781 184.640625 294.675781 184.355469 C 298.628906 181.273438 302.367188 177.945312 305.890625 174.375 C 311.121094 176.269531 313.847656 178.953125 313.847656 180.871094 C 313.847656 184.425781 305.359375 189.585938 292.0625 189.585938 Z M 292.0625 189.585938 " fill-opacity="1" fill-rule="nonzero"/></g><g clip-path="url(#4f935876ea)"><path fill="#ffffff" d="M 152.863281 263.933594 C 152.484375 263.914062 152.1875 263.894531 151.859375 263.875 C 149.585938 257.796875 142.269531 252.777344 131.089844 249.640625 C 147.265625 232.136719 165.710938 205.777344 165.710938 176.515625 C 165.710938 174.515625 165.613281 172.523438 165.417969 170.535156 C 165.222656 168.546875 164.929688 166.574219 164.539062 164.613281 C 164.148438 162.65625 163.664062 160.71875 163.085938 158.808594 C 162.503906 156.894531 161.832031 155.019531 161.070312 153.171875 C 160.304688 151.328125 159.449219 149.523438 158.507812 147.761719 C 157.566406 146 156.542969 144.289062 155.433594 142.625 C 154.320312 140.964844 153.132812 139.363281 151.867188 137.820312 C 150.597656 136.273438 149.257812 134.796875 147.847656 133.382812 C 146.433594 131.972656 144.957031 130.628906 143.410156 129.363281 C 141.867188 128.097656 140.265625 126.90625 138.601562 125.796875 C 136.941406 124.6875 135.230469 123.660156 133.46875 122.71875 C 131.707031 121.777344 129.902344 120.925781 128.058594 120.160156 C 126.210938 119.398438 124.332031 118.722656 122.421875 118.144531 C 120.511719 117.566406 118.574219 117.078125 116.613281 116.691406 C 114.65625 116.300781 112.683594 116.007812 110.695312 115.8125 C 108.707031 115.617188 106.714844 115.519531 104.714844 115.519531 C 102.71875 115.519531 100.722656 115.617188 98.738281 115.8125 C 96.75 116.007812 94.773438 116.300781 92.816406 116.691406 C 90.855469 117.078125 88.921875 117.566406 87.007812 118.144531 C 85.097656 118.722656 83.21875 119.398438 81.371094 120.160156 C 79.527344 120.925781 77.722656 121.777344 75.960938 122.71875 C 74.199219 123.660156 72.488281 124.6875 70.828125 125.796875 C 69.167969 126.90625 67.5625 128.097656 66.019531 129.363281 C 64.476562 130.628906 62.996094 131.972656 61.585938 133.382812 C 60.171875 134.796875 58.832031 136.273438 57.5625 137.820312 C 56.296875 139.363281 55.109375 140.964844 54 142.625 C 52.886719 144.289062 51.863281 146 50.921875 147.761719 C 49.980469 149.523438 49.125 151.328125 48.363281 153.171875 C 47.597656 155.019531 46.925781 156.894531 46.34375 158.808594 C 45.765625 160.71875 45.28125 162.65625 44.890625 164.613281 C 44.5 166.574219 44.207031 168.546875 44.011719 170.535156 C 43.816406 172.523438 43.71875 174.515625 43.71875 176.515625 C 43.71875 205.777344 62.167969 232.136719 78.339844 249.640625 C 64.714844 253.464844 56.789062 260.078125 56.789062 268.007812 C 56.789062 282.160156 81.480469 289.792969 104.714844 289.792969 C 125.292969 289.792969 146.976562 283.792969 151.675781 272.59375 C 151.914062 272.609375 152.109375 272.621094 152.371094 272.636719 C 152.457031 272.640625 152.539062 272.640625 152.621094 272.640625 C 152.902344 272.640625 153.179688 272.613281 153.457031 272.5625 C 153.730469 272.507812 154 272.425781 154.261719 272.320312 C 154.519531 272.214844 154.769531 272.085938 155.003906 271.933594 C 155.238281 271.777344 155.457031 271.601562 155.65625 271.40625 C 155.859375 271.210938 156.039062 270.996094 156.199219 270.765625 C 156.359375 270.535156 156.496094 270.292969 156.609375 270.035156 C 156.722656 269.777344 156.808594 269.511719 156.871094 269.238281 C 156.929688 268.964844 156.964844 268.6875 156.972656 268.40625 C 156.980469 268.125 156.960938 267.847656 156.914062 267.570312 C 156.871094 267.292969 156.796875 267.023438 156.699219 266.757812 C 156.601562 266.496094 156.476562 266.246094 156.332031 266.003906 C 156.183594 265.765625 156.015625 265.542969 155.824219 265.335938 C 155.636719 265.128906 155.425781 264.941406 155.199219 264.777344 C 154.972656 264.609375 154.734375 264.464844 154.480469 264.347656 C 154.226562 264.226562 153.964844 264.132812 153.691406 264.0625 C 153.417969 263.992188 153.144531 263.949219 152.863281 263.933594 Z M 104.714844 124.230469 C 106.425781 124.234375 108.132812 124.320312 109.839844 124.488281 C 111.542969 124.660156 113.230469 124.910156 114.910156 125.246094 C 116.589844 125.582031 118.246094 126 119.886719 126.496094 C 121.523438 126.996094 123.132812 127.570312 124.714844 128.226562 C 126.292969 128.882812 127.839844 129.613281 129.347656 130.421875 C 130.859375 131.230469 132.324219 132.109375 133.746094 133.0625 C 135.171875 134.011719 136.542969 135.03125 137.867188 136.117188 C 139.191406 137.203125 140.457031 138.351562 141.667969 139.5625 C 142.878906 140.773438 144.027344 142.039062 145.113281 143.363281 C 146.199219 144.6875 147.21875 146.058594 148.167969 147.480469 C 149.121094 148.90625 150 150.371094 150.808594 151.878906 C 151.613281 153.390625 152.347656 154.933594 153.003906 156.515625 C 153.65625 158.097656 154.234375 159.707031 154.734375 161.34375 C 155.230469 162.980469 155.648438 164.640625 155.984375 166.320312 C 156.320312 167.996094 156.570312 169.6875 156.742188 171.390625 C 156.910156 173.09375 156.996094 174.800781 156.996094 176.515625 C 156.996094 217.164062 115.617188 253.574219 104.714844 262.457031 C 93.8125 253.574219 52.433594 217.164062 52.433594 176.515625 C 52.433594 174.800781 52.519531 173.09375 52.691406 171.390625 C 52.859375 169.6875 53.113281 167.996094 53.445312 166.320312 C 53.78125 164.640625 54.199219 162.980469 54.695312 161.34375 C 55.195312 159.707031 55.773438 158.097656 56.429688 156.515625 C 57.085938 154.933594 57.816406 153.390625 58.625 151.878906 C 59.429688 150.371094 60.3125 148.90625 61.261719 147.480469 C 62.214844 146.058594 63.230469 144.6875 64.320312 143.363281 C 65.40625 142.039062 66.554688 140.773438 67.761719 139.5625 C 68.972656 138.351562 70.242188 137.203125 71.5625 136.117188 C 72.886719 135.03125 74.257812 134.011719 75.683594 133.0625 C 77.105469 132.109375 78.570312 131.230469 80.082031 130.421875 C 81.589844 129.613281 83.136719 128.882812 84.714844 128.226562 C 86.296875 127.570312 87.90625 126.996094 89.546875 126.496094 C 91.183594 126 92.839844 125.582031 94.519531 125.246094 C 96.199219 124.910156 97.890625 124.660156 99.59375 124.488281 C 101.296875 124.320312 103.003906 124.234375 104.714844 124.230469 Z M 104.714844 281.078125 C 80.777344 281.078125 65.503906 273.339844 65.503906 268.007812 C 65.503906 264.519531 72.507812 259.617188 85.40625 256.917969 C 90.671875 262.128906 96.242188 266.992188 102.117188 271.503906 C 102.492188 271.785156 102.902344 271.996094 103.347656 272.144531 C 103.789062 272.292969 104.246094 272.367188 104.714844 272.367188 C 105.183594 272.367188 105.640625 272.292969 106.085938 272.144531 C 106.527344 271.996094 106.9375 271.785156 107.316406 271.503906 C 113.1875 266.992188 118.757812 262.128906 124.023438 256.917969 C 136.921875 259.617188 143.925781 264.519531 143.925781 268.007812 C 143.925781 273.339844 128.652344 281.078125 104.714844 281.078125 Z M 104.714844 281.078125 " fill-opacity="1" fill-rule="nonzero"/></g><path fill="#ffffff" d="M 192.722656 194.8125 C 193.757812 193.089844 195.152344 191.742188 196.90625 190.761719 C 196.953125 190.714844 197.011719 190.683594 197.078125 190.675781 L 197.125 190.628906 C 197.765625 190.234375 198.269531 189.707031 198.632812 189.046875 C 199 188.386719 199.175781 187.679688 199.171875 186.925781 C 199.164062 186.117188 198.960938 185.363281 198.5625 184.660156 C 198.253906 184.175781 197.867188 183.769531 197.402344 183.433594 C 196.9375 183.101562 196.429688 182.867188 195.875 182.726562 C 195.316406 182.589844 194.757812 182.558594 194.191406 182.636719 C 193.625 182.714844 193.089844 182.898438 192.59375 183.179688 C 189.152344 185.269531 186.625 187.753906 185.054688 190.675781 C 184.964844 190.839844 184.886719 191.007812 184.820312 191.183594 C 184.753906 191.359375 184.695312 191.539062 184.652344 191.71875 C 184.609375 191.902344 184.574219 192.085938 184.554688 192.273438 C 184.535156 192.460938 184.527344 192.648438 184.53125 192.835938 C 184.535156 193.023438 184.550781 193.207031 184.578125 193.394531 C 184.605469 193.578125 184.644531 193.761719 184.699219 193.941406 C 184.75 194.121094 184.8125 194.296875 184.886719 194.472656 C 184.964844 194.644531 185.046875 194.808594 185.144531 194.96875 C 185.242188 195.132812 185.347656 195.285156 185.464844 195.433594 C 185.582031 195.578125 185.707031 195.71875 185.839844 195.847656 C 185.972656 195.980469 186.117188 196.101562 186.265625 196.214844 C 186.417969 196.328125 186.574219 196.429688 186.738281 196.519531 C 186.902344 196.613281 187.070312 196.695312 187.242188 196.765625 C 187.417969 196.835938 187.59375 196.890625 187.777344 196.941406 C 187.957031 196.988281 188.144531 197.023438 188.328125 197.042969 C 188.515625 197.066406 188.703125 197.078125 188.890625 197.078125 C 189.6875 197.070312 190.425781 196.867188 191.113281 196.460938 C 191.796875 196.054688 192.335938 195.507812 192.722656 194.8125 Z M 192.722656 194.8125 " fill-opacity="1" fill-rule="nonzero"/><path fill="#ffffff" d="M 177.910156 264.609375 L 177.648438 264.609375 C 174.945312 264.609375 172.203125 264.609375 169.546875 264.566406 L 169.457031 264.566406 C 169.175781 264.566406 168.898438 264.597656 168.621094 264.652344 C 168.34375 264.707031 168.074219 264.789062 167.8125 264.894531 C 167.554688 265.003906 167.304688 265.132812 167.070312 265.289062 C 166.832031 265.445312 166.617188 265.621094 166.414062 265.820312 C 166.210938 266.015625 166.03125 266.230469 165.871094 266.464844 C 165.710938 266.695312 165.574219 266.941406 165.464844 267.199219 C 165.351562 267.457031 165.265625 267.726562 165.203125 268 C 165.140625 268.277344 165.109375 268.554688 165.101562 268.835938 C 165.09375 269.121094 165.117188 269.40625 165.167969 269.683594 C 165.21875 269.964844 165.296875 270.238281 165.398438 270.503906 C 165.503906 270.769531 165.632812 271.023438 165.789062 271.261719 C 165.941406 271.5 166.121094 271.722656 166.316406 271.925781 C 166.515625 272.132812 166.734375 272.316406 166.96875 272.476562 C 167.203125 272.636719 167.449219 272.773438 167.714844 272.886719 C 167.976562 273 168.246094 273.085938 168.523438 273.144531 C 168.804688 273.203125 169.085938 273.234375 169.371094 273.234375 C 172.113281 273.324219 174.859375 273.324219 177.648438 273.324219 L 177.867188 273.324219 C 178.152344 273.324219 178.433594 273.296875 178.714844 273.238281 C 178.996094 273.183594 179.265625 273.101562 179.53125 272.992188 C 179.792969 272.882812 180.042969 272.75 180.28125 272.59375 C 180.519531 272.433594 180.738281 272.253906 180.941406 272.054688 C 181.140625 271.851562 181.324219 271.632812 181.480469 271.398438 C 181.640625 271.160156 181.777344 270.910156 181.886719 270.648438 C 181.996094 270.386719 182.078125 270.113281 182.136719 269.835938 C 182.191406 269.554688 182.222656 269.273438 182.222656 268.988281 C 182.226562 268.703125 182.199219 268.417969 182.144531 268.140625 C 182.089844 267.859375 182.007812 267.585938 181.902344 267.324219 C 181.792969 267.058594 181.664062 266.808594 181.503906 266.570312 C 181.347656 266.332031 181.171875 266.113281 180.96875 265.910156 C 180.769531 265.707031 180.550781 265.523438 180.316406 265.363281 C 180.082031 265.203125 179.832031 265.066406 179.570312 264.957031 C 179.304688 264.84375 179.035156 264.757812 178.757812 264.699219 C 178.476562 264.644531 178.195312 264.613281 177.910156 264.609375 Z M 177.910156 264.609375 " fill-opacity="1" fill-rule="nonzero"/><path fill="#ffffff" d="M 264.4375 233.632812 L 264.4375 233.589844 C 264.210938 233.066406 263.898438 232.601562 263.496094 232.199219 C 263.09375 231.796875 262.632812 231.480469 262.109375 231.253906 C 261.589844 231.027344 261.042969 230.90625 260.472656 230.886719 C 259.90625 230.871094 259.351562 230.957031 258.816406 231.148438 C 258.546875 231.253906 258.292969 231.382812 258.050781 231.535156 C 257.808594 231.691406 257.582031 231.867188 257.375 232.066406 C 257.167969 232.265625 256.980469 232.480469 256.816406 232.714844 C 256.652344 232.953125 256.511719 233.203125 256.394531 233.464844 C 256.28125 233.726562 256.191406 234 256.132812 234.28125 C 256.070312 234.5625 256.035156 234.84375 256.03125 235.132812 C 256.023438 235.421875 256.046875 235.703125 256.097656 235.988281 C 256.148438 236.269531 256.230469 236.546875 256.335938 236.8125 C 256.941406 238.445312 257.230469 240.128906 257.207031 241.867188 C 257.214844 242.246094 257.199219 242.625 257.160156 243 C 257.132812 243.285156 257.128906 243.570312 257.15625 243.855469 C 257.179688 244.140625 257.234375 244.417969 257.316406 244.695312 C 257.394531 244.96875 257.503906 245.234375 257.636719 245.488281 C 257.769531 245.738281 257.925781 245.976562 258.105469 246.199219 C 258.285156 246.421875 258.488281 246.625 258.707031 246.808594 C 258.925781 246.992188 259.164062 247.152344 259.414062 247.289062 C 259.667969 247.425781 259.929688 247.535156 260.203125 247.621094 C 260.476562 247.707031 260.753906 247.761719 261.039062 247.792969 L 261.476562 247.792969 C 262.019531 247.796875 262.542969 247.699219 263.050781 247.507812 C 263.554688 247.316406 264.011719 247.039062 264.414062 246.675781 C 264.816406 246.3125 265.140625 245.890625 265.382812 245.40625 C 265.628906 244.921875 265.777344 244.410156 265.832031 243.871094 C 265.875 243.21875 265.921875 242.519531 265.921875 241.867188 C 265.9375 239.097656 265.472656 236.410156 264.523438 233.808594 C 264.480469 233.761719 264.480469 233.675781 264.4375 233.632812 Z M 264.4375 233.632812 " fill-opacity="1" fill-rule="nonzero"/><path fill="#ffffff" d="M 249.757812 252.933594 C 247.578125 254.277344 245.296875 255.40625 242.914062 256.332031 C 242.648438 256.441406 242.398438 256.574219 242.160156 256.730469 C 241.921875 256.886719 241.703125 257.066406 241.496094 257.265625 C 241.292969 257.464844 241.113281 257.683594 240.949219 257.917969 C 240.789062 258.15625 240.652344 258.402344 240.539062 258.664062 C 240.425781 258.925781 240.339844 259.199219 240.277344 259.476562 C 240.21875 259.757812 240.183594 260.039062 240.179688 260.324219 C 240.175781 260.609375 240.195312 260.890625 240.246094 261.171875 C 240.296875 261.453125 240.371094 261.730469 240.472656 261.996094 C 240.636719 262.402344 240.851562 262.773438 241.125 263.113281 C 241.398438 263.453125 241.71875 263.746094 242.078125 263.992188 C 242.441406 264.234375 242.828125 264.421875 243.246094 264.550781 C 243.664062 264.679688 244.089844 264.742188 244.527344 264.742188 C 245.085938 264.75 245.625 264.648438 246.140625 264.433594 C 249.03125 263.316406 251.789062 261.9375 254.417969 260.296875 C 255.042969 259.898438 255.53125 259.375 255.886719 258.722656 C 256.242188 258.074219 256.421875 257.378906 256.421875 256.636719 C 256.421875 255.792969 256.203125 255.007812 255.769531 254.28125 C 255.449219 253.804688 255.054688 253.402344 254.582031 253.078125 C 254.109375 252.753906 253.59375 252.527344 253.03125 252.402344 C 252.472656 252.277344 251.910156 252.261719 251.34375 252.351562 C 250.777344 252.445312 250.246094 252.636719 249.757812 252.933594 Z M 249.757812 252.933594 " fill-opacity="1" fill-rule="nonzero"/><path fill="#ffffff" d="M 202.875 263.78125 C 200.085938 264 197.300781 264.128906 194.597656 264.261719 C 194.308594 264.269531 194.027344 264.304688 193.746094 264.371094 C 193.46875 264.4375 193.199219 264.527344 192.9375 264.648438 C 192.675781 264.765625 192.429688 264.910156 192.195312 265.078125 C 191.960938 265.246094 191.75 265.4375 191.554688 265.648438 C 191.359375 265.859375 191.1875 266.085938 191.039062 266.332031 C 190.890625 266.578125 190.765625 266.835938 190.667969 267.105469 C 190.570312 267.375 190.5 267.652344 190.457031 267.9375 C 190.414062 268.21875 190.402344 268.503906 190.414062 268.792969 C 190.425781 269.070312 190.460938 269.347656 190.523438 269.617188 C 190.585938 269.890625 190.675781 270.152344 190.789062 270.410156 C 190.902344 270.664062 191.042969 270.90625 191.203125 271.132812 C 191.363281 271.363281 191.542969 271.574219 191.746094 271.765625 C 191.945312 271.960938 192.164062 272.132812 192.398438 272.285156 C 192.632812 272.433594 192.882812 272.5625 193.140625 272.664062 C 193.398438 272.769531 193.667969 272.847656 193.941406 272.898438 C 194.214844 272.949219 194.492188 272.976562 194.773438 272.972656 L 194.945312 272.972656 C 197.953125 272.84375 200.828125 272.671875 203.484375 272.496094 C 204.035156 272.453125 204.554688 272.308594 205.050781 272.070312 C 205.546875 271.828125 205.984375 271.507812 206.359375 271.105469 C 206.734375 270.703125 207.023438 270.242188 207.226562 269.730469 C 207.429688 269.21875 207.53125 268.6875 207.535156 268.140625 L 207.535156 267.835938 C 207.515625 267.546875 207.46875 267.269531 207.390625 266.992188 C 207.316406 266.714844 207.214844 266.449219 207.085938 266.191406 C 206.957031 265.9375 206.804688 265.695312 206.628906 265.46875 C 206.453125 265.242188 206.257812 265.035156 206.042969 264.847656 C 205.824219 264.65625 205.59375 264.492188 205.34375 264.351562 C 205.097656 264.207031 204.835938 264.089844 204.5625 264 C 204.292969 263.910156 204.015625 263.84375 203.730469 263.808594 C 203.445312 263.769531 203.160156 263.761719 202.875 263.78125 Z M 202.875 263.78125 " fill-opacity="1" fill-rule="nonzero"/><path fill="#ffffff" d="M 227.449219 260.6875 C 225.050781 261.167969 222.4375 261.601562 219.34375 262.082031 C 218.773438 262.148438 218.238281 262.328125 217.746094 262.625 C 217.25 262.921875 216.839844 263.308594 216.511719 263.78125 C 215.777344 264.738281 215.5 265.8125 215.683594 267.007812 C 215.757812 267.523438 215.921875 268.011719 216.175781 268.46875 C 216.425781 268.925781 216.75 269.324219 217.148438 269.664062 C 217.542969 270.007812 217.988281 270.265625 218.480469 270.445312 C 218.96875 270.625 219.476562 270.710938 220 270.707031 C 220.203125 270.714844 220.40625 270.699219 220.605469 270.667969 C 223.484375 270.273438 226.359375 269.792969 229.148438 269.226562 C 229.636719 269.128906 230.097656 268.949219 230.527344 268.691406 C 230.957031 268.4375 231.332031 268.117188 231.652344 267.730469 C 231.972656 267.347656 232.21875 266.921875 232.394531 266.453125 C 232.570312 265.988281 232.664062 265.503906 232.675781 265.003906 C 232.671875 264.710938 232.640625 264.417969 232.589844 264.128906 C 232.53125 263.851562 232.445312 263.578125 232.332031 263.316406 C 232.222656 263.050781 232.085938 262.800781 231.925781 262.5625 C 231.765625 262.328125 231.582031 262.105469 231.378906 261.90625 C 231.175781 261.703125 230.957031 261.523438 230.71875 261.363281 C 230.480469 261.203125 230.230469 261.070312 229.964844 260.957031 C 229.703125 260.847656 229.429688 260.761719 229.148438 260.707031 C 228.871094 260.648438 228.585938 260.617188 228.300781 260.613281 C 228.015625 260.613281 227.730469 260.636719 227.449219 260.6875 Z M 227.449219 260.6875 " fill-opacity="1" fill-rule="nonzero"/><path fill="#ffffff" d="M 199.257812 216.335938 C 199.769531 216.339844 200.265625 216.261719 200.746094 216.09375 C 201.226562 215.921875 201.664062 215.679688 202.0625 215.355469 C 202.457031 215.03125 202.785156 214.652344 203.046875 214.214844 C 203.308594 213.777344 203.484375 213.308594 203.582031 212.804688 C 203.679688 212.304688 203.6875 211.800781 203.605469 211.296875 C 203.523438 210.796875 203.359375 210.320312 203.113281 209.875 C 202.863281 209.429688 202.546875 209.039062 202.164062 208.703125 C 201.777344 208.367188 201.347656 208.109375 200.871094 207.925781 C 198.664062 207.148438 196.644531 206.027344 194.8125 204.574219 C 194.371094 204.210938 193.875 203.945312 193.324219 203.773438 C 192.777344 203.605469 192.21875 203.542969 191.648438 203.585938 C 191.078125 203.628906 190.535156 203.78125 190.019531 204.03125 C 189.503906 204.285156 189.054688 204.625 188.671875 205.050781 C 188.488281 205.269531 188.324219 205.5 188.183594 205.75 C 188.042969 206 187.929688 206.261719 187.839844 206.535156 C 187.75 206.804688 187.691406 207.085938 187.65625 207.367188 C 187.621094 207.652344 187.617188 207.9375 187.640625 208.222656 C 187.660156 208.507812 187.710938 208.789062 187.789062 209.0625 C 187.867188 209.339844 187.96875 209.605469 188.097656 209.859375 C 188.230469 210.113281 188.382812 210.355469 188.558594 210.578125 C 188.738281 210.804688 188.933594 211.007812 189.152344 211.195312 C 191.71875 213.300781 194.5625 214.914062 197.691406 216.03125 C 198.191406 216.238281 198.714844 216.339844 199.257812 216.335938 Z M 199.257812 216.335938 " fill-opacity="1" fill-rule="nonzero"/><path fill="#ffffff" d="M 223.179688 222 C 223.4375 222.035156 223.699219 222.050781 223.960938 222.042969 C 224.503906 222.039062 225.023438 221.9375 225.527344 221.738281 C 226.03125 221.539062 226.480469 221.253906 226.878906 220.886719 C 227.277344 220.519531 227.59375 220.09375 227.832031 219.605469 C 228.070312 219.121094 228.214844 218.605469 228.257812 218.066406 C 228.304688 217.527344 228.253906 217 228.101562 216.480469 C 227.949219 215.957031 227.710938 215.484375 227.382812 215.054688 C 227.054688 214.625 226.65625 214.265625 226.195312 213.984375 C 225.734375 213.703125 225.238281 213.511719 224.703125 213.417969 L 222.65625 213.066406 C 220.476562 212.675781 218.472656 212.285156 216.425781 211.933594 C 216.144531 211.882812 215.859375 211.855469 215.574219 211.859375 C 215.289062 211.859375 215.007812 211.890625 214.726562 211.945312 C 214.449219 212.003906 214.175781 212.089844 213.914062 212.199219 C 213.652344 212.308594 213.402344 212.445312 213.164062 212.605469 C 212.929688 212.765625 212.710938 212.945312 212.507812 213.148438 C 212.308594 213.351562 212.128906 213.570312 211.972656 213.808594 C 211.8125 214.046875 211.679688 214.296875 211.570312 214.5625 C 211.464844 214.824219 211.382812 215.097656 211.328125 215.378906 C 211.292969 215.636719 211.277344 215.898438 211.285156 216.160156 C 211.273438 216.671875 211.347656 217.167969 211.515625 217.652344 C 211.679688 218.136719 211.925781 218.578125 212.25 218.972656 C 212.574219 219.367188 212.953125 219.695312 213.394531 219.953125 C 213.835938 220.210938 214.308594 220.386719 214.8125 220.476562 C 217.339844 220.953125 219.910156 221.433594 222.394531 221.867188 Z M 223.179688 222 " fill-opacity="1" fill-rule="nonzero"/><path fill="#ffffff" d="M 244.351562 183.917969 C 244.925781 183.914062 245.476562 183.800781 246.007812 183.578125 C 246.539062 183.359375 247.007812 183.046875 247.417969 182.648438 C 247.828125 182.246094 248.148438 181.78125 248.378906 181.257812 C 248.609375 180.730469 248.734375 180.179688 248.753906 179.609375 L 248.753906 179.519531 C 248.746094 178.953125 248.632812 178.410156 248.414062 177.886719 C 248.195312 177.367188 247.886719 176.902344 247.488281 176.5 C 247.089844 176.101562 246.628906 175.785156 246.109375 175.5625 C 245.589844 175.339844 245.046875 175.21875 244.480469 175.207031 C 242.390625 175.117188 240.34375 175.117188 238.296875 175.117188 L 235.902344 175.117188 C 235.613281 175.121094 235.332031 175.152344 235.050781 175.210938 C 234.769531 175.269531 234.5 175.355469 234.238281 175.46875 C 233.972656 175.578125 233.722656 175.714844 233.488281 175.878906 C 233.25 176.039062 233.03125 176.222656 232.832031 176.425781 C 232.632812 176.628906 232.453125 176.851562 232.296875 177.089844 C 232.140625 177.332031 232.007812 177.582031 231.902344 177.847656 C 231.796875 178.113281 231.714844 178.386719 231.664062 178.667969 C 231.609375 178.949219 231.585938 179.234375 231.585938 179.519531 C 231.589844 179.804688 231.621094 180.089844 231.679688 180.367188 C 231.738281 180.648438 231.824219 180.921875 231.933594 181.183594 C 232.046875 181.445312 232.183594 181.695312 232.34375 181.933594 C 232.507812 182.167969 232.691406 182.386719 232.894531 182.585938 C 233.097656 182.789062 233.320312 182.964844 233.558594 183.121094 C 233.800781 183.277344 234.050781 183.410156 234.316406 183.519531 C 234.582031 183.625 234.855469 183.703125 235.136719 183.757812 C 235.417969 183.808594 235.703125 183.835938 235.988281 183.832031 C 238.777344 183.789062 241.5625 183.832031 244.265625 183.917969 Z M 244.351562 183.917969 " fill-opacity="1" fill-rule="nonzero"/><path fill="#ffffff" d="M 219.5625 184.703125 C 220.097656 184.648438 220.609375 184.5 221.089844 184.253906 C 221.570312 184.007812 221.988281 183.683594 222.347656 183.28125 C 222.707031 182.875 222.980469 182.421875 223.167969 181.917969 C 223.355469 181.410156 223.449219 180.886719 223.441406 180.347656 L 223.441406 179.910156 C 223.410156 179.628906 223.347656 179.351562 223.261719 179.078125 C 223.175781 178.804688 223.0625 178.542969 222.925781 178.292969 C 222.789062 178.042969 222.628906 177.808594 222.445312 177.589844 C 222.261719 177.371094 222.058594 177.171875 221.839844 176.992188 C 221.617188 176.8125 221.378906 176.65625 221.125 176.519531 C 220.875 176.386719 220.609375 176.28125 220.335938 176.199219 C 220.0625 176.117188 219.785156 176.0625 219.5 176.035156 C 219.214844 176.003906 218.933594 176.003906 218.648438 176.035156 C 215.554688 176.382812 212.636719 176.777344 209.933594 177.296875 C 209.402344 177.394531 208.902344 177.585938 208.441406 177.871094 C 207.980469 178.15625 207.585938 178.515625 207.257812 178.945312 C 206.933594 179.378906 206.695312 179.855469 206.542969 180.375 C 206.394531 180.898438 206.34375 181.425781 206.394531 181.96875 C 206.445312 182.507812 206.589844 183.019531 206.828125 183.503906 C 207.070312 183.992188 207.390625 184.417969 207.789062 184.78125 C 208.1875 185.148438 208.640625 185.429688 209.144531 185.625 C 209.652344 185.824219 210.175781 185.921875 210.714844 185.925781 C 210.996094 185.917969 211.273438 185.886719 211.546875 185.835938 C 214.027344 185.402344 216.730469 185.007812 219.5625 184.703125 Z M 219.5625 184.703125 " fill-opacity="1" fill-rule="nonzero"/><path fill="#ffffff" d="M 248.40625 228.449219 C 248.902344 228.445312 249.386719 228.363281 249.855469 228.195312 C 250.324219 228.03125 250.75 227.789062 251.136719 227.476562 C 251.523438 227.164062 251.847656 226.796875 252.105469 226.371094 C 252.367188 225.949219 252.550781 225.492188 252.652344 225.007812 C 252.757812 224.519531 252.777344 224.03125 252.714844 223.539062 C 252.652344 223.042969 252.507812 222.574219 252.285156 222.132812 C 252.058594 221.6875 251.769531 221.292969 251.410156 220.949219 C 251.050781 220.605469 250.644531 220.332031 250.191406 220.125 C 247.507812 218.925781 244.746094 217.9375 241.914062 217.164062 C 241.832031 217.113281 241.746094 217.085938 241.652344 217.078125 L 241.609375 217.078125 C 241.332031 217.003906 241.054688 216.957031 240.769531 216.9375 C 240.488281 216.917969 240.203125 216.925781 239.921875 216.960938 C 239.640625 216.996094 239.363281 217.058594 239.09375 217.148438 C 238.824219 217.234375 238.566406 217.351562 238.316406 217.488281 C 238.070312 217.628906 237.835938 217.789062 237.621094 217.972656 C 237.402344 218.15625 237.207031 218.363281 237.027344 218.582031 C 236.851562 218.804688 236.699219 219.042969 236.566406 219.296875 C 236.433594 219.546875 236.328125 219.808594 236.25 220.082031 C 236.164062 220.46875 236.117188 220.863281 236.117188 221.257812 C 236.113281 221.730469 236.183594 222.191406 236.332031 222.640625 C 236.480469 223.089844 236.695312 223.503906 236.976562 223.882812 C 237.261719 224.261719 237.597656 224.582031 237.988281 224.851562 C 238.378906 225.117188 238.800781 225.3125 239.253906 225.441406 C 241.773438 226.128906 244.230469 227 246.617188 228.054688 C 247.183594 228.316406 247.78125 228.449219 248.40625 228.449219 Z M 248.40625 228.449219 " fill-opacity="1" fill-rule="nonzero"/></svg>