<svg width="81" height="95" viewBox="0 0 81 95" fill="none" xmlns="http://www.w3.org/2000/svg">
<path d="M60.335 18.088C60.335 10.014 53.765 3.44501 45.691 3.44501C37.619 3.44501 31.054 10.014 31.054 18.088C31.054 25.165 42.387 41.955 45.691 46.699C48.995 41.956 60.335 25.163 60.335 18.088ZM37.989 17.926C37.989 13.676 41.444 10.22 45.691 10.22C49.942 10.22 53.4 13.677 53.4 17.926C53.4 22.173 49.942 25.629 45.691 25.629C41.444 25.63 37.989 22.174 37.989 17.926Z" fill="white"/>
<path d="M76.963 56.237C76.932 56.311 76.907 56.385 76.873 56.459C76.269 57.757 75.014 59.138 73.297 59.138C73.289 59.138 73.281 59.138 73.274 59.138C71.986 59.122 71.043 58.37 70.21 57.706C69.568 57.192 69.025 56.781 68.492 56.767C68.098 56.78 67.641 57.072 67.157 57.38C66.948 57.513 66.738 57.646 66.525 57.767C65.339 58.452 63.601 58.661 62.616 57.475C62.373 57.184 62.298 56.787 62.417 56.428C62.986 54.693 63.214 52.897 63.092 51.089C63.016 50.076 62.759 49.863 62.682 49.822C62.521 49.732 62.209 49.728 61.907 49.723C60.509 49.697 59.208 49.552 57.96 49.291C57.457 49.176 56.729 49.009 56.155 48.479C54.932 47.333 55.081 45.495 56.555 43.428L64.023 33.05C62.352 31.795 60.553 30.687 58.632 29.762C54.053 38.846 47.022 48.645 46.584 49.251C46.378 49.538 46.046 49.707 45.692 49.707C45.338 49.707 45.007 49.537 44.8 49.251C44.556 48.914 42.267 45.723 39.495 41.395C38.125 42.653 36.32 44.607 36.12 45.266C35.583 47.007 36.835 48.914 38.046 50.759L38.224 51.03C40.328 54.236 40.601 57.17 38.973 59.077C36.712 61.753 32.689 60.47 30.529 59.781C30.416 59.745 30.227 59.838 30.062 60.016C29.706 60.394 29.477 61.111 29.77 61.855C30.063 62.605 31.325 64.39 36.689 64.774C38.886 64.932 40.418 67.165 40.471 69.151C40.538 71.135 39.117 72.407 37.865 73.529C37.257 74.073 36.673 74.596 36.284 75.156C38.054 75.966 40.852 74.913 43.568 73.89C47.097 72.56 51.097 71.054 53.074 74.193C53.19 74.378 53.25 74.593 53.244 74.811C53.165 77.591 52.257 80.385 50.686 82.679C50.569 82.852 50.443 83.027 50.319 83.203C49.83 83.89 49.368 84.538 49.261 85.21C49.117 86.088 49.62 87.134 50.539 87.879C51.448 88.613 52.478 89.445 56.267 89.461C56.316 89.461 56.359 89.484 56.407 89.49C68.473 84.743 77.06 73.008 77.114 59.275C77.116 58.254 77.054 57.243 76.963 56.237Z" fill="#B0DDD2"/>
<path d="M57.652 46.869C57.792 46.997 58.161 47.082 58.432 47.144C59.523 47.373 60.686 47.502 61.868 47.523C62.458 47.532 63.105 47.541 63.733 47.89C65.113 48.625 65.242 50.362 65.285 50.933C65.403 52.68 65.242 54.412 64.804 56.1C64.989 56.064 65.2081 55.987 65.4311 55.857C65.6221 55.75 65.798 55.637 65.975 55.524C66.654 55.091 67.4251 54.601 68.4181 54.569C69.7201 54.486 70.723 55.299 71.583 55.986C72.192 56.472 72.768 56.931 73.295 56.938C73.297 56.938 73.299 56.938 73.299 56.938C73.937 56.938 74.552 56.233 74.878 55.532C75.066 55.126 75.212 54.68 75.368 54.209C75.583 53.556 75.804 52.88 76.165 52.222C76.204 52.152 76.263 52.106 76.313 52.048C74.77 45.202 71.039 39.011 65.736 34.435L58.341 44.712C57.66 45.668 57.362 46.597 57.652 46.869Z" fill="#99BED9"/>
<path d="M19.56 68.074C19.826 67.699 19.96 67.407 19.957 67.197C19.95 66.897 19.639 66.5 19.308 66.079C19.179 65.913 19.049 65.747 18.93 65.58C16.711 62.42 17.908 58.044 20.236 55.353L20.395 55.169C20.831 54.668 21.281 54.152 21.252 53.751C21.235 53.465 20.915 53.147 20.524 53.014C19.98 52.827 19.312 52.881 18.67 52.97C17.551 53.114 16.747 53.322 15.817 53.565C14.877 53.809 13.8 54.081 12.288 54.31C12.057 55.856 11.913 57.428 11.908 59.011C11.885 64.818 13.398 70.276 16.05 75.015C16.756 72.053 18.281 69.888 19.385 68.321L19.56 68.074Z" fill="#99BED9"/>
<path d="M11.361 27.713C7.23902 27.713 3.88501 31.068 3.88501 35.191C3.88501 38.396 8.65502 46.567 11.361 50.823C14.066 46.567 18.833 38.396 18.833 35.191C18.834 31.068 15.482 27.713 11.361 27.713ZM11.361 37.743C9.90202 37.743 8.716 36.557 8.716 35.098C8.716 33.642 9.90202 32.458 11.361 32.458C12.818 32.458 14.001 33.643 14.001 35.098C14.002 36.557 12.818 37.743 11.361 37.743Z" fill="white"/>
<path d="M19.916 36.199C23.439 32.449 27.807 29.502 32.719 27.672" stroke="#464C54" stroke-width="4" stroke-miterlimit="10" stroke-linecap="round" stroke-linejoin="round"/>
<path d="M58.923 28.796C70.357 34.223 78.248 45.892 78.195 59.391C78.122 78.007 62.968 93.03 44.357 92.958C25.749 92.883 10.719 77.735 10.791 59.119C10.799 57.199 10.966 55.314 11.286 53.477" stroke="#464C54" stroke-width="4" stroke-miterlimit="10" stroke-linecap="round" stroke-linejoin="round"/>
<path d="M11.694 53.4C14.921 52.957 16.021 52.312 18.505 51.992C19.287 51.886 20.108 51.825 20.864 52.085C21.618 52.343 22.285 52.997 22.333 53.782C22.402 54.719 21.66 55.477 21.051 56.184C18.948 58.616 17.962 62.421 19.809 65.053C20.314 65.762 21.023 66.431 21.04 67.3C21.044 67.85 20.763 68.368 20.443 68.817C18.964 70.923 16.768 73.857 16.748 78.382" stroke="#464C54" stroke-width="4" stroke-miterlimit="10" stroke-linecap="round" stroke-linejoin="round"/>
<path d="M37.569 41.989C36.498 42.808 35.438 43.773 35.05 45.062C34.33 47.393 35.952 49.706 37.287 51.745C38.619 53.774 39.7 56.626 38.12 58.475C36.45 60.45 33.315 59.632 30.847 58.844C28.387 58.059 25.32 65.177 36.594 65.982C38.102 66.091 39.314 67.775 39.355 69.293C39.445 71.957 35.701 73.105 34.855 75.632C39.22 79.672 49.152 70.164 52.127 74.891C52.054 77.48 51.2231 80.035 49.7621 82.168C49.1221 83.11 48.339 84.018 48.158 85.147C47.929 86.541 48.725 87.951 49.831 88.846C50.927 89.731 52.189 90.656 56.246 90.673" stroke="#464C54" stroke-width="4" stroke-miterlimit="10" stroke-linecap="round" stroke-linejoin="round"/>
<path d="M65.206 33.377C62.614 36.979 60.025 40.583 57.432 44.18C56.655 45.268 55.911 46.873 56.882 47.783C57.228 48.102 57.709 48.222 58.167 48.328C59.372 48.581 60.603 48.713 61.83 48.735C62.288 48.742 62.773 48.737 63.181 48.964C63.907 49.351 64.109 50.307 64.17 51.127C64.302 53.071 64.053 55.029 63.443 56.884C64.027 57.586 65.17 57.382 65.965 56.921C66.766 56.469 67.518 55.81 68.436 55.78C70.264 55.718 71.429 58.127 73.262 58.15C74.419 58.159 75.362 57.17 75.856 56.108C76.344 55.056 76.55 53.884 77.111 52.863" stroke="#464C54" stroke-width="4" stroke-miterlimit="10" stroke-linecap="round" stroke-linejoin="round"/>
<path d="M29.937 18.2C29.937 9.503 36.982 2.457 45.674 2.457C54.371 2.457 61.418 9.503 61.418 18.2C61.418 26.892 45.674 48.72 45.674 48.72C45.674 48.72 29.937 26.893 29.937 18.2Z" stroke="#464C54" stroke-width="4" stroke-miterlimit="10" stroke-linecap="round" stroke-linejoin="round"/>
<path d="M52.283 18.038C52.283 21.685 49.327 24.641 45.674 24.641C42.029 24.641 39.072 21.685 39.072 18.038C39.072 14.389 42.029 11.432 45.674 11.432C49.326 11.431 52.283 14.389 52.283 18.038Z" stroke="#464C54" stroke-width="4" stroke-miterlimit="10" stroke-linecap="round" stroke-linejoin="round"/>
<path d="M2.76898 35.303C2.76898 30.565 6.60897 26.725 11.345 26.725C16.078 26.725 19.917 30.564 19.917 35.303C19.917 40.041 11.345 52.958 11.345 52.958C11.345 52.958 2.76898 40.041 2.76898 35.303Z" stroke="#464C54" stroke-width="4" stroke-miterlimit="10" stroke-linecap="round" stroke-linejoin="round"/>
<path d="M12.885 35.21C12.885 36.067 12.197 36.755 11.345 36.755C10.494 36.755 9.79999 36.068 9.79999 35.21C9.79999 34.362 10.494 33.67 11.345 33.67C12.197 33.67 12.885 34.363 12.885 35.21Z" stroke="#464C54" stroke-width="4" stroke-miterlimit="10" stroke-linecap="round" stroke-linejoin="round"/>
</svg>
