<svg width="97" height="65" viewBox="0 0 97 65" fill="none" xmlns="http://www.w3.org/2000/svg">
<path d="M47.558 51.341H63.702V10.198C63.702 10.198 63.906 2.44 55.909 2.44H3.69699V20.152H35.637V13.43L49.361 25.395L35.637 37.358V30.638H3.69699V51.343H9.44298" fill="#99BED9"/>
<path d="M47.558 51.341H63.702V10.198C63.702 10.198 63.906 2.44 55.909 2.44H3.69699V20.152H35.637V13.43L49.361 25.395L35.637 37.358V30.638H3.69699V51.343H9.44298" stroke="#464C54" stroke-width="4" stroke-miterlimit="10" stroke-linecap="round" stroke-linejoin="round"/>
<path d="M73.032 37.688V25.792H88.375L83.72 17.072H63.703V51.341H94.639V37.688H73.032Z" fill="#B0DDD2"/>
<path d="M86.23 51.341H94.639V37.523L83.72 17.072H63.703V51.341H72.019" stroke="#464C54" stroke-width="4" stroke-miterlimit="10" stroke-linecap="round" stroke-linejoin="round"/>
<path d="M22.643 51.341H31.898" stroke="#464C54" stroke-width="4" stroke-miterlimit="10" stroke-linecap="round" stroke-linejoin="round"/>
<path d="M73.032 52.635C73.032 56.281 75.985 59.229 79.631 59.229C83.277 59.229 86.23 56.281 86.23 52.635C86.23 48.989 83.277 46.035 79.631 46.035C75.985 46.035 73.032 48.989 73.032 52.635Z" fill="white" stroke="#464C54" stroke-width="4" stroke-miterlimit="10" stroke-linecap="round" stroke-linejoin="round"/>
<path d="M9.44299 52.635C9.44299 56.281 12.398 59.229 16.043 59.229C19.687 59.229 22.643 56.281 22.643 52.635C22.643 48.989 19.687 46.035 16.043 46.035C12.398 46.035 9.44299 48.989 9.44299 52.635Z" fill="white" stroke="#464C54" stroke-width="4" stroke-miterlimit="10" stroke-linecap="round" stroke-linejoin="round"/>
<path d="M32.778 52.635C32.778 56.281 35.734 59.229 39.377 59.229C43.023 59.229 45.976 56.281 45.976 52.635C45.976 48.989 43.023 46.035 39.377 46.035C35.734 46.035 32.778 48.989 32.778 52.635Z" fill="white" stroke="#464C54" stroke-width="4" stroke-miterlimit="10" stroke-linecap="round" stroke-linejoin="round"/>
<path d="M94.113 62.975H2.53198" stroke="#464C54" stroke-width="4" stroke-miterlimit="10" stroke-linecap="round" stroke-linejoin="round"/>
<path d="M78.871 26.892H73.032V37.688H94.774" stroke="#464C54" stroke-width="4" stroke-miterlimit="10" stroke-linecap="round" stroke-linejoin="round"/>
</svg>
