<svg width="86" height="91" viewBox="0 0 86 91" fill="none" xmlns="http://www.w3.org/2000/svg">
<path d="M49.583 11.53H2.44699V87.888H62.465C66.302 87.888 69.445 84.741 69.445 80.906V40.48" fill="#DFF0F7"/>
<path d="M38.907 19.647H18.544V7.33698H25.536C26.972 4.42798 29.938 2.41302 33.401 2.41302C36.866 2.41302 39.833 4.42798 41.269 7.33698" fill="#99BED9"/>
<path d="M63.884 44.359L44.137 34.853V13.598L63.884 23.112V44.359Z" fill="white"/>
<path d="M63.884 44.359L44.137 34.853V13.598L63.884 23.112V44.359Z" stroke="#464C54" stroke-width="4" stroke-miterlimit="10" stroke-linecap="round" stroke-linejoin="round"/>
<path d="M63.884 23.093L44.137 13.586L63.893 4.10101L83.64 13.606L63.884 23.093Z" fill="white"/>
<path d="M63.884 23.093L44.137 13.586L63.893 4.10101L83.64 13.606L63.884 23.093Z" stroke="#464C54" stroke-width="4" stroke-miterlimit="10" stroke-linecap="round" stroke-linejoin="round"/>
<path d="M83.634 34.853L63.884 44.359V23.112L83.634 13.598V34.853Z" fill="white"/>
<path d="M83.634 34.853L63.884 44.359V23.112L83.634 13.598V34.853Z" stroke="#464C54" stroke-width="4" stroke-miterlimit="10" stroke-linecap="round" stroke-linejoin="round"/>
<path d="M54.009 18.341L73.763 8.854" stroke="#464C54" stroke-width="4" stroke-miterlimit="10" stroke-linecap="round" stroke-linejoin="round"/>
<path d="M56.658 27.668L50.825 24.864" stroke="#464C54" stroke-width="4" stroke-miterlimit="10" stroke-linecap="round" stroke-linejoin="round"/>
<path d="M41.269 7.33801C39.834 4.42901 36.867 2.414 33.401 2.414C29.938 2.414 26.972 4.42901 25.536 7.33801H18.544V19.648H34.998" stroke="#464C54" stroke-width="4" stroke-miterlimit="10" stroke-linecap="round"/>
<path d="M18.544 12.26H2.448V88.618H62.466C66.303 88.618 69.446 85.47 69.446 81.636V49.819" stroke="#464C54" stroke-width="4" stroke-miterlimit="10" stroke-linecap="round" stroke-linejoin="round"/>
<path d="M13.673 45.397L16.642 49.709L24.196 40.479" stroke="#464C54" stroke-width="4" stroke-miterlimit="10"/>
<path d="M13.673 58.95L16.642 63.258L24.196 54.023" stroke="#464C54" stroke-width="4" stroke-miterlimit="10"/>
<path d="M13.673 72.5L16.642 76.805L24.196 67.572" stroke="#464C54" stroke-width="4" stroke-miterlimit="10"/>
<path d="M30.529 49.709H49.583" stroke="#464C54" stroke-width="4" stroke-miterlimit="10"/>
<path d="M30.529 62.026H58.869" stroke="#464C54" stroke-width="4" stroke-miterlimit="10"/>
<path d="M30.529 74.341H58.869" stroke="#464C54" stroke-width="4" stroke-miterlimit="10"/>
</svg>
