<svg width="98" height="87" viewBox="0 0 98 87" fill="none" xmlns="http://www.w3.org/2000/svg">
<path d="M2.77301 23.679L41.775 2.599L80.774 23.679" fill="#99BED9"/>
<path d="M2.77301 23.679L41.775 2.599L80.774 23.679" stroke="#464C54" stroke-width="4" stroke-miterlimit="10" stroke-linecap="round" stroke-linejoin="round"/>
<path d="M74.413 21.336H10.467V28.86H74.413V21.336Z" fill="#DFF0F7"/>
<path d="M9.13202 68.753V21.336H74.413V38.537" stroke="#464C54" stroke-width="4" stroke-miterlimit="10" stroke-linecap="round" stroke-linejoin="round"/>
<path d="M10.467 28.86H74.413" stroke="#464C54" stroke-width="4" stroke-miterlimit="10" stroke-linecap="round" stroke-linejoin="round"/>
<path d="M88.368 78.306H95.314V66.896L86.295 54.196H73.832V78.306H76.637" fill="#B0DDD2"/>
<path d="M88.368 78.306H95.314V66.896L86.295 54.196H73.832V78.306H76.637" stroke="#464C54" stroke-width="4" stroke-miterlimit="10" stroke-linecap="round" stroke-linejoin="round"/>
<path d="M43.511 78.306H38.236V46.057H67.399C74.001 46.057 73.833 52.459 73.833 52.459V78.306H56.442" fill="#99BED9"/>
<path d="M43.511 78.306H38.236V46.057H67.399C74.001 46.057 73.833 52.459 73.833 52.459V78.306H56.442" stroke="#464C54" stroke-width="4" stroke-miterlimit="10" stroke-linecap="round" stroke-linejoin="round"/>
<path d="M77.471 79.367C77.471 82.378 79.912 84.818 82.923 84.818C85.93 84.818 88.368 82.378 88.368 79.367C88.368 76.361 85.93 73.922 82.923 73.922C79.912 73.921 77.471 76.361 77.471 79.367Z" fill="white" stroke="#464C54" stroke-width="4" stroke-miterlimit="10" stroke-linecap="round" stroke-linejoin="round"/>
<path d="M44.235 79.367C44.235 82.378 46.676 84.818 49.687 84.818C52.695 84.818 55.135 82.378 55.135 79.367C55.135 76.361 52.694 73.922 49.687 73.922C46.676 73.921 44.235 76.361 44.235 79.367Z" fill="white" stroke="#464C54" stroke-width="4" stroke-miterlimit="10" stroke-linecap="round" stroke-linejoin="round"/>
<path d="M31.022 57.237H19.209V69.045H31.022V57.237Z" fill="white" stroke="#464C54" stroke-width="4" stroke-miterlimit="10" stroke-linecap="round" stroke-linejoin="round"/>
<path d="M28.144 45.352H16.332V57.164H28.144V45.352Z" fill="white" stroke="#464C54" stroke-width="4" stroke-miterlimit="10" stroke-linecap="round" stroke-linejoin="round"/>
</svg>
